<?xml version="1.0" encoding="UTF-8"?>
<!DOCTYPE svg PUBLIC "-//W3C//DTD SVG 1.1//EN" "http://www.w3.org/Graphics/SVG/1.1/DTD/svg11.dtd">
<!-- Creator: CorelDRAW 2017 -->
<svg xmlns="http://www.w3.org/2000/svg" xml:space="preserve" width="76.2mm" height="76.2mm" version="1.1" style="shape-rendering:geometricPrecision; text-rendering:geometricPrecision; image-rendering:optimizeQuality; fill-rule:evenodd; clip-rule:evenodd"
viewBox="0 0 439.98 439.98"
 xmlns:xlink="http://www.w3.org/1999/xlink">
 <defs>
  <style type="text/css">
   <![CDATA[
    .fil0 {fill:#5D6A6B}
   ]]>
  </style>
 </defs>
 <g id="Capa_x0020_1">
  <metadata id="CorelCorpID_0Corel-Layer"/>
  <g id="_1814242540368">
   <path class="fil0" d="M219.99 0c-121.3,0 -219.99,98.69 -219.99,219.99 0,121.3 98.69,219.99 219.99,219.99 121.3,0 219.99,-98.68 219.99,-219.99 0,-121.3 -98.68,-219.99 -219.99,-219.99zm0 421.64c-111.19,0 -201.65,-90.46 -201.65,-201.65 0,-111.19 90.46,-201.66 201.65,-201.66 111.19,0 201.66,90.46 201.66,201.65 0,111.19 -90.46,201.65 -201.66,201.65z"/>
   <path class="fil0" d="M232.35 73.85c5.04,0.43 9.48,-3.31 9.91,-8.36 0.43,-5.04 -3.31,-9.48 -8.36,-9.91 -4.58,-0.39 -9.26,-0.59 -13.92,-0.59 -90.98,0 -164.99,74.01 -164.99,164.99 0,5.06 4.11,9.17 9.17,9.17 5.06,0 9.17,-4.11 9.17,-9.17 0,-80.87 65.79,-146.66 146.66,-146.66 4.14,0 8.3,0.18 12.36,0.52z"/>
   <path class="fil0" d="M375.81 210.82c-5.06,0 -9.17,4.1 -9.17,9.17 0,80.87 -65.79,146.65 -146.66,146.65 -4.13,0 -8.29,-0.17 -12.37,-0.52 -5.04,-0.41 -9.48,3.32 -9.91,8.36 -0.42,5.04 3.32,9.48 8.36,9.91 4.59,0.39 9.27,0.58 13.92,0.58 90.98,0 164.99,-74.01 164.99,-164.99 0,-5.06 -4.1,-9.17 -9.17,-9.17z"/>
   <path class="fil0" d="M257.23 78.14c0.29,0.08 0.58,0.15 0.86,0.23 0.75,0.19 1.5,0.28 2.24,0.28 4.11,0 7.84,-2.78 8.89,-6.94 1.23,-4.91 -1.76,-9.89 -6.67,-11.12 -0.16,-0.04 -0.31,-0.08 -0.47,-0.12 -4.88,-1.34 -9.93,1.53 -11.26,6.42 -1.34,4.88 1.53,9.93 6.42,11.26z"/>
   <path class="fil0" d="M182.54 361.79l-0.53 -0.14c-4.89,-1.31 -9.92,1.6 -11.22,6.5 -1.31,4.89 1.6,9.91 6.5,11.22l0.14 0.04c0.22,0.06 0.44,0.12 0.66,0.17 0.75,0.19 1.49,0.28 2.23,0.28 4.11,0 7.85,-2.78 8.89,-6.95 1.23,-4.91 -1.76,-9.89 -6.67,-11.12z"/>
   <path class="fil0" d="M302.48 228.12c0,-29.38 -15.81,-56.75 -41.25,-71.44 -4.38,-2.53 -9.99,-1.03 -12.52,3.35 -2.53,4.38 -1.03,9.99 3.35,12.52 19.79,11.43 32.08,32.72 32.08,55.57 0,35.38 -28.78,64.16 -64.16,64.16 -35.38,0 -64.16,-28.78 -64.16,-64.16 0,-22.85 12.29,-44.14 32.08,-55.57 4.38,-2.53 5.89,-8.14 3.35,-12.52 -2.53,-4.38 -8.14,-5.89 -12.52,-3.35 -25.44,14.69 -41.25,42.07 -41.25,71.44 0,45.49 37.01,82.5 82.5,82.5 45.49,-0 82.5,-37.01 82.5,-82.5z"/>
   <path class="fil0" d="M210.82 138.53l0 73.33c0,5.06 4.1,9.17 9.17,9.17 5.06,0 9.17,-4.1 9.17,-9.17l0 -73.33c0,-5.06 -4.1,-9.17 -9.17,-9.17 -5.06,0 -9.17,4.1 -9.17,9.17z"/>
  </g>
 </g>
</svg>
