<?xml version="1.0" encoding="UTF-8"?>
<!DOCTYPE svg PUBLIC "-//W3C//DTD SVG 1.1//EN" "http://www.w3.org/Graphics/SVG/1.1/DTD/svg11.dtd">
<!-- Creator: CorelDRAW 2017 -->
<svg xmlns="http://www.w3.org/2000/svg" xml:space="preserve" width="76.2001mm" height="76.2132mm" version="1.1" style="shape-rendering:geometricPrecision; text-rendering:geometricPrecision; image-rendering:optimizeQuality; fill-rule:evenodd; clip-rule:evenodd"
viewBox="0 0 439.98 440.05"
 xmlns:xlink="http://www.w3.org/1999/xlink">
 <defs>
  <style type="text/css">
   <![CDATA[
    .fil0 {fill:#5D6A6B}
   ]]>
  </style>
 </defs>
 <g id="Capa_x0020_1">
  <metadata id="CorelCorpID_0Corel-Layer"/>
  <g id="_1814539316400">
   <path class="fil0" d="M375.54 64.44c-41.55,-41.56 -96.79,-64.44 -155.55,-64.44 -58.76,0 -114.01,22.89 -155.56,64.44 -41.55,41.56 -64.43,96.81 -64.43,155.58 0,58.77 22.88,114.03 64.43,155.58 41.55,41.56 96.79,64.44 155.56,64.44 42.05,0 82.92,-11.9 118.2,-34.43 3,-1.92 3.88,-5.9 1.97,-8.9 -1.92,-3 -5.9,-3.88 -8.9,-1.97 -33.2,21.2 -71.68,32.4 -111.26,32.4 -55.32,0 -107.33,-21.54 -146.44,-60.67 -39.12,-39.12 -60.66,-91.14 -60.66,-146.47 0,-55.33 21.54,-107.34 60.66,-146.47 39.12,-39.12 91.12,-60.67 146.44,-60.67 55.31,0 107.32,21.54 146.44,60.67 39.12,39.12 60.66,91.14 60.66,146.47 0,59.82 -25.86,116.72 -70.96,156.1 -2.68,2.34 -2.96,6.41 -0.62,9.1 2.34,2.68 6.42,2.96 9.1,0.62 47.9,-41.83 75.37,-102.26 75.37,-165.81 0,-58.77 -22.88,-114.03 -64.43,-155.58zm0 0z"/>
   <path class="fil0" d="M210.28 125.51l-80.42 0c-14.94,0 -27.09,12.15 -27.09,27.09l0 115.53c0,14.94 12.15,27.09 27.09,27.09l44.68 0c1.35,0 2.63,0.53 3.58,1.48l31.54 31.55c3.42,3.42 7.97,5.3 12.8,5.3 4.83,0 9.38,-1.88 12.8,-5.3l31.55 -31.55c0.94,-0.94 2.25,-1.48 3.58,-1.48l39.74 0c14.94,0 27.09,-12.15 27.09,-27.09l0 -115.53c0,-14.94 -12.15,-27.09 -27.09,-27.09l-66.66 0c-3.56,0 -6.45,2.88 -6.45,6.45 0,3.56 2.88,6.45 6.45,6.45l66.66 0c7.83,0 14.2,6.37 14.2,14.2l0 115.53c0,7.83 -6.37,14.2 -14.2,14.2l-39.74 0c-4.79,0 -9.3,1.87 -12.69,5.26l-31.54 31.55c-0.99,0.98 -2.29,1.53 -3.68,1.53 -1.39,0 -2.7,-0.54 -3.69,-1.53l-31.54 -31.55c-3.39,-3.39 -7.9,-5.26 -12.7,-5.26l-44.68 0c-7.83,0 -14.2,-6.37 -14.2,-14.2l0 -115.53c0,-7.83 6.37,-14.2 14.2,-14.2l80.42 0c3.56,0 6.45,-2.89 6.45,-6.45 0,-3.56 -2.88,-6.45 -6.45,-6.45zm0 0z"/>
   <path class="fil0" d="M296.41 198.86c0,-3.56 -2.88,-6.45 -6.45,-6.45l-89.22 0c-3.56,0 -6.45,2.89 -6.45,6.45 0,3.56 2.89,6.45 6.45,6.45l89.22 0c3.56,0 6.45,-2.88 6.45,-6.45l0 0zm0 0z"/>
   <path class="fil0" d="M200.74 222.65c-3.56,0 -6.45,2.89 -6.45,6.45 0,3.56 2.89,6.45 6.45,6.45l46.28 0c3.56,0 6.45,-2.88 6.45,-6.45 0,-3.56 -2.88,-6.45 -6.45,-6.45l-46.28 0zm0 0z"/>
   <path class="fil0" d="M164.26 183.91c-3,-1.92 -6.99,-1.05 -8.9,1.95l-12.46 19.44c-1.84,2.88 -2.81,6.2 -2.81,9.61l0 11.74c0,6.44 5.24,11.68 11.68,11.68l10.92 0c6.44,0 11.68,-5.24 11.68,-11.68l0 -9.84c0,-6.44 -5.24,-11.68 -11.68,-11.68l-4.36 -0 7.9 -12.32c1.92,-3 1.04,-6.99 -1.95,-8.91l0 0zm-2.8 34.12l0 7.41 -8.49 0 0 -7.41 8.49 0zm0 0z"/>
  </g>
 </g>
</svg>
