<?xml version="1.0" encoding="UTF-8"?>
<!DOCTYPE svg PUBLIC "-//W3C//DTD SVG 1.1//EN" "http://www.w3.org/Graphics/SVG/1.1/DTD/svg11.dtd">
<!-- Creator: CorelDRAW 2017 -->
<svg xmlns="http://www.w3.org/2000/svg" xml:space="preserve" width="76.2mm" height="89.0778mm" version="1.1" style="shape-rendering:geometricPrecision; text-rendering:geometricPrecision; image-rendering:optimizeQuality; fill-rule:evenodd; clip-rule:evenodd"
viewBox="0 0 2208.35 2581.56"
 xmlns:xlink="http://www.w3.org/1999/xlink">
 <defs>
  <style type="text/css">
   <![CDATA[
    .fil0 {fill:#15949D}
   ]]>
  </style>
 </defs>
 <g id="Capa_x0020_1">
  <metadata id="CorelCorpID_0Corel-Layer"/>
  <g id="_1814178553760">
   <path class="fil0" d="M2161.69 2488.25l-23.58 0c5.18,-14.61 8.03,-30.3 8.03,-46.65 0,-34.59 -12.6,-67.2 -34.84,-92.39 2.47,-10.48 3.74,-21.22 3.74,-32.02 0,-60.82 -39.01,-112.68 -93.31,-131.94l-0 -1843.11 15.55 0c25.77,0 46.66,-20.88 46.66,-46.65l0 -248.82c0,-25.77 -20.88,-46.65 -46.66,-46.65l-1866.21 0c-25.76,0 -46.65,20.88 -46.65,46.65l0 248.82c0,25.77 20.89,46.65 46.65,46.65l15.55 0 0 1843.11c-54.3,19.27 -93.31,71.12 -93.31,131.94 0,10.8 1.27,21.56 3.74,32.02 -22.25,25.2 -34.84,57.8 -34.84,92.39 0,16.35 2.85,32.05 8.02,46.65l-23.58 0c-25.77,0 -46.65,20.88 -46.65,46.66 0,25.77 20.9,46.66 46.66,46.66l2115.03 0c25.77,0 46.66,-20.88 46.66,-46.65 0,-25.77 -20.88,-46.66 -46.66,-46.66zm-1943.96 -2394.94l1772.9 0 0 155.51 -1772.9 0 0 -155.51zm295.48 2394.94l-311.04 0c-25.73,0 -46.65,-20.92 -46.65,-46.65 0,-15.95 8.09,-30.64 21.64,-39.31 20.87,-13.35 27.68,-40.69 15.49,-62.26 -4,-7.08 -6.03,-14.77 -6.03,-22.84 0,-25.73 20.92,-46.66 46.65,-46.66 11.42,0 22.44,4.26 31.05,11.98 17.72,15.91 44.58,15.91 62.31,0 8.62,-7.72 19.64,-11.98 31.05,-11.98 11.42,0 22.44,4.26 31.06,11.98 17.72,15.91 44.58,15.91 62.3,0 8.62,-7.72 19.64,-11.98 31.06,-11.98 25.73,0 46.65,20.93 46.65,46.66 0,8.08 -2.03,15.76 -6.03,22.84 -12.19,21.58 -5.38,48.91 15.49,62.26 13.55,8.67 21.64,23.36 21.64,39.31 0,25.73 -20.92,46.65 -46.66,46.65zm668.73 0l-31.11 0 0 -77.76c0,-25.77 -20.88,-46.65 -46.65,-46.65 -25.77,0 -46.66,20.88 -46.66,46.65l0 77.76 -31.11 0 0 -155.51 155.51 0 0 155.51 0.01 0zm408.08 -139.04c-22.24,25.2 -34.84,57.79 -34.84,92.39 0,16.36 2.85,32.05 8.02,46.65l-287.96 0 0 -202.17c0,-25.77 -20.88,-46.65 -46.66,-46.65l-248.82 0c-25.77,0 -46.66,20.88 -46.66,46.65l0 202.16 -287.96 0c5.17,-14.61 8.02,-30.3 8.02,-46.65 0,-34.59 -12.6,-67.2 -34.84,-92.39 2.47,-10.48 3.74,-21.22 3.74,-32.02 0,-77.17 -62.78,-139.96 -139.96,-139.96 -21.76,0 -43.01,5.08 -62.2,14.64 -19.19,-9.56 -40.45,-14.64 -62.2,-14.64 -21.76,0 -43.02,5.08 -62.21,14.64 -5.05,-2.52 -10.24,-4.7 -15.55,-6.59l0 -1843.14 1648.48 0 0 1843.14c-5.31,1.89 -10.51,4.07 -15.55,6.6 -19.19,-9.56 -40.45,-14.64 -62.21,-14.64 -21.76,0 -43.01,5.08 -62.2,14.64 -19.19,-9.56 -40.44,-14.64 -62.2,-14.64 -77.18,0 -139.97,62.79 -139.97,139.96 -0.01,10.8 1.26,21.55 3.74,32.02zm416.14 139.04l-311.02 0c-25.73,0 -46.65,-20.92 -46.65,-46.65 0,-15.95 8.09,-30.64 21.64,-39.31 20.87,-13.35 27.68,-40.69 15.48,-62.26 -4,-7.08 -6.03,-14.77 -6.03,-22.84 0,-25.73 20.93,-46.66 46.66,-46.66 14.63,0 24.96,6.51 31.05,11.98 17.73,15.91 44.58,15.91 62.31,0 6.09,-5.47 16.43,-11.98 31.05,-11.98 14.62,0 24.96,6.51 31.05,11.98 17.73,15.91 44.58,15.91 62.31,0 6.09,-5.47 16.43,-11.98 31.05,-11.98 25.73,0 46.66,20.93 46.66,46.66 0,8.08 -2.03,15.76 -6.03,22.84 -12.19,21.58 -5.39,48.91 15.48,62.26 13.55,8.67 21.64,23.36 21.64,39.31 -0.01,25.73 -20.93,46.65 -46.66,46.65z"/>
   <path class="fil0" d="M668.73 1119.71l-15.55 0 0 -139.96c0,-25.77 -20.89,-46.65 -46.66,-46.65l-124.42 -0c-25.77,0 -46.65,20.88 -46.65,46.65l0 139.96 -15.55 0c-25.77,0 -46.66,20.88 -46.66,46.65 0,25.77 20.89,46.65 46.66,46.65l248.82 0c25.77,0 46.66,-20.88 46.66,-46.65 0,-25.77 -20.89,-46.65 -46.66,-46.65zm-108.86 0l-31.11 0 0 -93.31 31.11 0 0 93.31z"/>
   <path class="fil0" d="M1041.97 1119.71l-15.55 0 0 -139.96c0,-25.77 -20.89,-46.65 -46.65,-46.65l-124.42 -0c-25.77,0 -46.66,20.88 -46.66,46.65l0 139.96 -15.55 0c-25.77,0 -46.66,20.88 -46.66,46.65 0,25.77 20.89,46.65 46.66,46.65l248.82 0c25.76,0 46.65,-20.88 46.65,-46.65 0,-25.77 -20.89,-46.65 -46.65,-46.65zm-108.87 0l-31.11 0 0 -93.31 31.11 0 0 93.31z"/>
   <path class="fil0" d="M1415.21 1119.71l-15.55 0 0 -139.96c0,-25.77 -20.88,-46.65 -46.65,-46.65l-124.42 -0c-25.77,0 -46.66,20.88 -46.66,46.65l0 139.96 -15.55 0c-25.77,0 -46.66,20.88 -46.66,46.65 0,25.77 20.88,46.65 46.66,46.65l248.82 0c25.77,0 46.66,-20.88 46.66,-46.65 0,-25.77 -20.89,-46.65 -46.66,-46.65zm-108.87 0l-31.1 0 0 -93.31 31.1 0 0 93.31z"/>
   <path class="fil0" d="M1539.62 1213.02l248.82 0c25.77,0 46.66,-20.88 46.66,-46.65 0,-25.77 -20.89,-46.65 -46.66,-46.65l-15.55 0 0 -139.96c0,-25.77 -20.88,-46.65 -46.65,-46.65l-124.42 -0c-25.77,0 -46.65,20.88 -46.65,46.65l0 139.96 -15.55 0c-25.77,0 -46.65,20.88 -46.65,46.65 0,25.77 20.88,46.65 46.65,46.65zm108.86 -186.62l31.11 0 0 93.31 -31.11 0 0 -93.31z"/>
   <path class="fil0" d="M668.73 684.27l-15.55 0 0 -139.96c0,-25.77 -20.89,-46.65 -46.66,-46.65l-124.42 -0c-25.77,0 -46.65,20.88 -46.65,46.66l0 139.96 -15.55 0c-25.77,0 -46.66,20.88 -46.66,46.65 0,25.77 20.89,46.66 46.66,46.66l248.82 0c25.77,0 46.66,-20.89 46.66,-46.66 0,-25.77 -20.89,-46.65 -46.66,-46.65zm-108.86 0l-31.11 0 0 -93.31 31.11 0 0 93.31z"/>
   <path class="fil0" d="M1041.97 684.27l-15.55 0 0 -139.96c0,-25.77 -20.89,-46.65 -46.65,-46.65l-124.42 -0c-25.77,0 -46.66,20.88 -46.66,46.66l0 139.96 -15.55 0c-25.77,0 -46.66,20.88 -46.66,46.65 0,25.77 20.89,46.66 46.66,46.66l248.82 0c25.76,0 46.65,-20.89 46.65,-46.66 0,-25.77 -20.89,-46.65 -46.65,-46.65zm-108.87 0l-31.11 0 0 -93.31 31.11 0 0 93.31z"/>
   <path class="fil0" d="M1415.21 684.27l-15.55 0 0 -139.96c0,-25.77 -20.88,-46.65 -46.65,-46.65l-124.42 -0c-25.77,0 -46.66,20.88 -46.66,46.66l0 139.96 -15.55 0c-25.77,0 -46.66,20.88 -46.66,46.65 0,25.77 20.88,46.66 46.66,46.66l248.82 0c25.77,0 46.66,-20.89 46.66,-46.66 0,-25.77 -20.89,-46.65 -46.66,-46.65zm-108.87 0l-31.1 0 0 -93.31 31.1 0 0 93.31z"/>
   <path class="fil0" d="M1539.62 777.58l248.82 0c25.77,0 46.66,-20.89 46.66,-46.66 0,-25.77 -20.89,-46.65 -46.66,-46.65l-15.55 0 0 -139.96c0,-25.77 -20.88,-46.65 -46.65,-46.65l-124.42 -0c-25.77,0 -46.65,20.88 -46.65,46.66l0 139.96 -15.55 0c-25.77,0 -46.65,20.88 -46.65,46.65 0,25.77 20.88,46.66 46.65,46.66zm108.86 -186.62l31.11 0 0 93.31 -31.11 0 0 -93.31z"/>
   <path class="fil0" d="M668.73 1555.16l-15.55 0 0 -139.96c0,-25.77 -20.89,-46.66 -46.66,-46.66l-124.42 0c-25.77,0 -46.65,20.88 -46.65,46.66l0 139.96 -15.55 0c-25.77,0 -46.66,20.88 -46.66,46.66 0,25.77 20.89,46.65 46.66,46.65l248.82 0c25.77,0 46.66,-20.89 46.66,-46.66 0,-25.78 -20.89,-46.66 -46.66,-46.66zm-108.86 0l-31.11 0 0 -93.31 31.11 0 0 93.31z"/>
   <path class="fil0" d="M1041.97 1555.16l-15.55 0 0 -139.96c0,-25.77 -20.89,-46.66 -46.65,-46.66l-124.42 0c-25.77,0 -46.66,20.88 -46.66,46.66l0 139.96 -15.55 0c-25.77,0 -46.66,20.88 -46.66,46.66 0,25.77 20.89,46.65 46.66,46.65l248.82 0c25.76,0 46.65,-20.89 46.65,-46.66 0,-25.78 -20.89,-46.66 -46.65,-46.66zm-108.87 0l-31.11 0 0 -93.31 31.11 0 0 93.31z"/>
   <path class="fil0" d="M1415.21 1555.16l-15.55 0 0 -139.96c0,-25.77 -20.88,-46.66 -46.65,-46.66l-124.42 0c-25.77,0 -46.66,20.88 -46.66,46.66l0 139.96 -15.55 0c-25.77,0 -46.66,20.88 -46.66,46.66 0,25.77 20.88,46.65 46.66,46.65l248.82 0c25.77,0 46.66,-20.89 46.66,-46.66 0,-25.78 -20.89,-46.66 -46.66,-46.66zm-108.87 0l-31.1 0 0 -93.31 31.1 0 0 93.31z"/>
   <path class="fil0" d="M1539.62 1648.47l248.82 0c25.77,0 46.66,-20.89 46.66,-46.66 0,-25.77 -20.89,-46.65 -46.66,-46.65l-15.55 -0 0 -139.96c0,-25.77 -20.88,-46.66 -46.65,-46.66l-124.42 0c-25.77,0 -46.65,20.88 -46.65,46.66l0 139.96 -15.55 0c-25.77,0 -46.65,20.88 -46.65,46.66 0,25.77 20.88,46.66 46.65,46.66zm108.86 -186.62l31.11 0 0 93.31 -31.11 0 0 -93.31z"/>
   <path class="fil0" d="M668.73 1990.6l-15.55 0 0 -139.96c0,-25.77 -20.89,-46.65 -46.66,-46.65l-124.42 0c-25.77,0 -46.65,20.88 -46.65,46.65l0 139.96 -15.55 0c-25.77,0 -46.66,20.88 -46.66,46.66 0,25.77 20.89,46.65 46.66,46.65l248.82 0c25.77,0 46.66,-20.88 46.66,-46.65 0,-25.77 -20.89,-46.66 -46.66,-46.66zm-108.86 0l-31.11 0 0 -93.31 31.11 0 0 93.31z"/>
   <path class="fil0" d="M1041.97 1990.6l-15.55 0 0 -139.96c0,-25.77 -20.89,-46.65 -46.65,-46.65l-124.42 0c-25.77,0 -46.66,20.88 -46.66,46.65l0 139.96 -15.55 0c-25.77,0 -46.66,20.88 -46.66,46.66 0,25.77 20.89,46.65 46.66,46.65l248.82 0c25.76,0 46.65,-20.88 46.65,-46.65 0,-25.77 -20.89,-46.66 -46.65,-46.66zm-108.87 0l-31.11 0 0 -93.31 31.11 0 0 93.31z"/>
   <path class="fil0" d="M1415.21 1990.6l-15.55 0 0 -139.96c0,-25.77 -20.88,-46.65 -46.65,-46.65l-124.42 0c-25.77,0 -46.66,20.88 -46.66,46.65l0 139.96 -15.55 0c-25.77,0 -46.66,20.88 -46.66,46.66 0,25.77 20.88,46.65 46.66,46.65l248.82 0c25.77,0 46.66,-20.88 46.66,-46.65 0,-25.77 -20.89,-46.66 -46.66,-46.66zm-108.87 0l-31.1 0 0 -93.31 31.1 0 0 93.31z"/>
   <path class="fil0" d="M1835.11 2037.25c0,-25.77 -20.89,-46.65 -46.66,-46.65l-15.55 -0 0 -139.96c0,-25.77 -20.88,-46.65 -46.65,-46.65l-124.42 0c-25.77,0 -46.66,20.88 -46.66,46.65l0 139.96 -15.55 0c-25.77,0 -46.66,20.88 -46.66,46.66 0,25.77 20.88,46.65 46.66,46.65l248.82 0c25.77,0 46.66,-20.88 46.66,-46.65zm-155.52 -46.66l-31.11 0 0 -93.31 31.11 0 0 93.31z"/>
  </g>
 </g>
</svg>
