<?xml version="1.0" encoding="UTF-8"?>
<!DOCTYPE svg PUBLIC "-//W3C//DTD SVG 1.1//EN" "http://www.w3.org/Graphics/SVG/1.1/DTD/svg11.dtd">
<!-- Creator: CorelDRAW 2017 -->
<svg xmlns="http://www.w3.org/2000/svg" xml:space="preserve" width="76.1999mm" height="66.6569mm" version="1.1" style="shape-rendering:geometricPrecision; text-rendering:geometricPrecision; image-rendering:optimizeQuality; fill-rule:evenodd; clip-rule:evenodd"
viewBox="0 0 439.98 384.87"
 xmlns:xlink="http://www.w3.org/1999/xlink">
 <defs>
  <style type="text/css">
   <![CDATA[
    .fil0 {fill:#5D6A6B}
   ]]>
  </style>
 </defs>
 <g id="Capa_x0020_1">
  <metadata id="CorelCorpID_0Corel-Layer"/>
  <g id="_1814345551952">
   <path class="fil0" d="M270.73 283.26l-24.12 0c-3.56,0 -6.44,2.89 -6.44,6.44 0,3.56 2.89,6.45 6.44,6.45l24.12 0c3.56,0 6.44,-2.89 6.44,-6.45 0,-3.56 -2.89,-6.44 -6.44,-6.44z"/>
   <path class="fil0" d="M412.69 214.26l-35.1 -13.54 -17.89 -17.89c-1.15,-1.15 -2.63,-1.77 -4.14,-1.87l0 -14.24c8.43,-8.99 14.44,-20.38 16.86,-33.21 1.5,0.07 3.02,-0.05 4.52,-0.36 8.58,-1.76 14.8,-9.71 14.8,-18.92l0 -4.7c0,-5.33 -2.16,-10.21 -5.68,-13.71 5.69,-30.95 1,-56.18 -13.62,-73.06 -14.14,-16.33 -36.93,-24.14 -65.89,-22.57 -26.76,1.45 -44.03,13.76 -49.5,18.26 -3,0.36 -8.1,1.41 -13.26,4.51 -7.16,4.3 -15.69,13.32 -15.69,31.91 0,16.22 2.59,29.76 4.47,37.44 -6.29,3.06 -10.5,9.71 -10.5,17.3l0 4.63c0,9.21 6.22,17.16 14.8,18.92 1.5,0.31 3.02,0.43 4.52,0.36 2.42,12.83 8.43,24.22 16.86,33.21l0 14.24c-1.51,0.1 -2.99,0.72 -4.14,1.87l-17.89 17.89 -35.1 13.54c-3.04,1.17 -5.94,2.69 -8.62,4.51 -2.94,2 -3.71,6.01 -1.71,8.95 1.25,1.84 3.27,2.82 5.34,2.82 1.25,0 2.51,-0.36 3.62,-1.11 1.87,-1.27 3.89,-2.33 6.01,-3.15l32.57 -12.56 24.9 37.36c3.09,4.63 8.03,7.6 13.57,8.15 0.62,0.06 1.23,0.09 1.84,0.09 3.21,0 6.32,-0.84 9.07,-2.4l-5.34 121.23c-0.16,3.56 2.6,6.57 6.16,6.72 0.1,0 0.19,0.01 0.29,0.01 3.43,0 6.28,-2.7 6.43,-6.16l4.96 -112.52 13.38 -0 4.96 112.52c0.15,3.46 3.01,6.16 6.43,6.16 0.1,0 0.19,-0 0.29,-0.01 3.56,-0.16 6.31,-3.17 6.16,-6.72l-5.34 -121.23c2.75,1.56 5.86,2.4 9.07,2.4 0.61,0 1.23,-0.03 1.84,-0.09 5.54,-0.55 10.49,-3.52 13.57,-8.15l24.9 -37.36 32.57 12.56c4.57,1.76 8.5,4.57 11.59,8.08l-22.28 22.28c-8.05,8.05 -12.48,18.76 -12.48,30.14l0 91.64c0,3.56 2.89,6.44 6.44,6.44 3.56,0 6.44,-2.89 6.44,-6.44l0 -91.64c0,-7.94 3.09,-15.41 8.71,-21.02l19.56 -19.56c0.79,2.88 1.15,5.91 1.03,9.01l-4.99 122.95c-0.14,3.56 2.62,6.56 6.18,6.7 0.09,0 0.18,0.01 0.27,0.01 3.44,0 6.29,-2.72 6.43,-6.18l4.99 -122.96c0.73,-18.24 -10.22,-34.91 -27.25,-41.47zm-158.68 -83.4c-1.14,-6.19 -6.87,-10.69 -13.05,-10.23 -0.49,0.04 -0.99,0 -1.5,-0.1 -2.56,-0.52 -4.5,-3.23 -4.5,-6.29l0 -4.63c0,-2.99 2,-5.68 4.55,-6.13 2.15,-0.38 4.21,0.41 5.52,2.11 1.18,1.54 2.76,2.65 4.56,3.19 2.64,0.8 5.55,0.33 7.79,-1.25 4.03,-2.85 7.59,-6.32 10.57,-10.33 2.12,-2.86 1.53,-6.89 -1.33,-9.02 -2.86,-2.12 -6.89,-1.53 -9.02,1.33 -1.49,2 -3.17,3.82 -5.02,5.42 -2.04,-1.75 -4.43,-3.01 -6.99,-3.73 -1.66,-6.34 -4.6,-19.93 -4.6,-36.33 0,-9.87 3.04,-16.81 9.04,-20.61 4.68,-2.97 9.64,-3.09 9.64,-3.09 1.65,0 3.25,-0.65 4.45,-1.78 0.16,-0.15 16,-14.85 43.13,-16.32 24.84,-1.34 44.01,4.93 55.45,18.14 11.53,13.31 15.37,33.75 11.2,59.33 -1.73,-0.06 -3.62,0.07 -5.5,0.38l-6.06 -14.54c-1.24,-2.97 -4.47,-4.57 -7.58,-3.76 -0.6,0.16 -60.12,15.24 -85.07,-15.83 -2.23,-2.77 -6.28,-3.22 -9.06,-0.99 -2.77,2.23 -3.22,6.28 -0.99,9.06 25.48,31.73 76.05,24.83 92.88,21.46l4.68 11.24c2.01,4.83 7.16,7.47 12.24,6.28 2.08,-0.49 4.07,-0.5 4.82,-0.35 2.61,0.52 4.57,3.12 4.57,6.05l0 4.7c0,3.06 -1.93,5.76 -4.5,6.29 -0.51,0.1 -1.01,0.14 -1.5,0.1 -6.18,-0.45 -11.91,4.04 -13.05,10.23 -4.69,25.53 -26.93,44.05 -52.9,44.05 -25.96,-0 -48.21,-18.53 -52.89,-44.05zm28.59 113.93c-1.63,1.63 -3.53,1.71 -4.52,1.62 -0.99,-0.1 -2.84,-0.55 -4.12,-2.47l-25.09 -37.63 10.09 -10.09 38.51 33.7 -14.88 14.88zm18.18 8.51l0.39 -8.86 5.73 -5.73 5.73 5.73 0.39 8.86 -12.24 0zm6.12 -32.27l-35.76 -31.29 0 -12.33c10.4,6.61 22.7,10.4 35.76,10.4 13.06,0 25.37,-3.79 35.76,-10.4l0 12.33 -35.76 31.29zm32.95 22.9c-1.28,1.92 -3.13,2.38 -4.12,2.47 -0.99,0.1 -2.89,0.02 -4.52,-1.62l-14.88 -14.88 38.51 -33.7 10.09 10.09 -25.09 37.63z"/>
   <path class="fil0" d="M204.39 248.04l-31.47 -13.74 -17.2 -17.2c-1.15,-1.15 -2.63,-1.77 -4.14,-1.87l0 -10.14c14.7,-9.66 25.46,-25.03 28.92,-43.34 1.69,0.08 3.4,-0.09 5.09,-0.48 8.25,-1.95 14.23,-9.85 14.23,-18.79l0 -4.7c0,-6.53 -3.24,-12.4 -8.26,-15.85 1.48,-5.85 2.23,-11.83 2.23,-17.86 0,-26.7 -14.43,-50.22 -36.19,-63.72 -0.23,-22.29 -19.25,-40.35 -42.61,-40.35 -23.36,0 -42.38,18.06 -42.61,40.35 -21.76,13.5 -36.19,37.02 -36.19,63.72 0,6 0.75,11.97 2.22,17.8 -5.02,3.43 -8.25,9.33 -8.25,15.97l0 4.63c0,8.94 5.99,16.84 14.23,18.79 1.68,0.4 3.39,0.56 5.09,0.48 3.46,18.31 14.22,33.68 28.92,43.34l0 10.14c-1.51,0.1 -2.99,0.72 -4.14,1.87l-17.2 17.2 -31.47 13.74c-16.01,6.99 -26.27,23.41 -25.53,40.87l3.81 89.79c0.15,3.46 3,6.17 6.44,6.17 0.09,0 0.18,-0 0.28,-0.01 3.56,-0.15 6.32,-3.16 6.17,-6.71l-3.81 -89.8c-0.24,-5.79 1.26,-11.4 4.09,-16.23l16.92 20.3c5.35,6.41 8.29,14.55 8.29,22.89l0 63.11c0,3.56 2.89,6.44 6.44,6.44 3.56,0 6.44,-2.89 6.44,-6.44l0 -63.11c0,-11.36 -4.01,-22.42 -11.28,-31.15l-17.98 -21.58c1.53,-1.05 3.15,-1.99 4.89,-2.74l27.43 -11.97 19.38 31.46c1.91,3.11 5.08,5.21 8.68,5.78 0.65,0.1 1.3,0.15 1.94,0.15 2.95,0 5.82,-1.04 8.09,-2.99l12.28 -10.48 0 106.62c0,3.56 2.89,6.44 6.44,6.44 3.56,0 6.44,-2.89 6.44,-6.44l0 -106.62 12.28 10.48c2.28,1.94 5.15,2.99 8.09,2.99 0.65,0 1.3,-0.05 1.94,-0.15 3.6,-0.57 6.77,-2.67 8.68,-5.78l19.38 -31.46 27.43 11.97c1.74,0.76 3.36,1.69 4.89,2.74l-17.98 21.58c-7.27,8.73 -11.28,19.79 -11.28,31.15l0 63.11c0,3.56 2.89,6.44 6.44,6.44 3.56,0 6.44,-2.89 6.44,-6.44l0 -63.11c0,-8.35 2.94,-16.48 8.29,-22.89l16.92 -20.3c2.83,4.83 4.33,10.45 4.09,16.23l-3.81 89.8c-0.15,3.56 2.61,6.56 6.17,6.71 0.09,0 0.18,0.01 0.28,0.01 3.43,0 6.29,-2.71 6.43,-6.17l3.81 -89.79c0.74,-17.46 -9.52,-33.88 -25.53,-40.87zm-89.41 -235.15c13.71,0 25.28,8.75 28.7,20.6 -8.9,-3.36 -18.58,-5.2 -28.7,-5.2 -10.12,0 -19.8,1.85 -28.7,5.2 3.42,-11.85 14.99,-20.6 28.7,-20.6zm-52.9 146.21c-1.14,-6.19 -6.88,-10.69 -13.05,-10.23 -0.55,0.04 -1.11,-0.01 -1.68,-0.14 -2.46,-0.58 -4.31,-3.27 -4.31,-6.25l0 -4.63c0,-2.99 2,-5.68 4.55,-6.13 2.15,-0.38 4.21,0.41 5.51,2.11 1.18,1.54 2.76,2.65 4.57,3.19 2.64,0.8 5.55,0.33 7.79,-1.25 3.97,-2.8 7.48,-6.22 10.43,-10.15 2.14,-2.85 1.56,-6.89 -1.28,-9.02 -2.85,-2.14 -6.89,-1.56 -9.02,1.28 -1.46,1.95 -3.11,3.72 -4.92,5.29 -2.76,-2.36 -6.14,-3.83 -9.73,-4.28 -1.23,-4.85 -1.87,-9.82 -1.87,-14.81 0,-34.68 29.57,-62.9 65.91,-62.9 36.34,0 65.91,28.22 65.91,62.9 0,4.98 -0.63,9.94 -1.86,14.78 -1.7,0.13 -3.42,0.41 -5.02,0.83l-4.84 -3.98c-2.43,-2 -5.5,-3 -8.6,-2.82 -9.47,0.56 -57.99,1.84 -82.88,-27.95 -2.28,-2.73 -6.35,-3.1 -9.08,-0.81 -2.73,2.28 -3.1,6.35 -0.81,9.08 12.28,14.69 30.28,24.63 53.52,29.53 17.79,3.75 33.6,3.39 39.8,3.03l7.56 6.22c2.08,1.71 5,1.95 7.33,0.6 1.09,-0.6 4.75,-1.16 6.35,-0.85 2.61,0.52 4.57,3.12 4.57,6.05l0 4.7c0,2.98 -1.85,5.67 -4.31,6.25 -0.57,0.14 -1.14,0.18 -1.68,0.14 -6.17,-0.45 -11.91,4.04 -13.05,10.23 -4.69,25.53 -26.93,44.05 -52.9,44.05 -25.96,0 -48.21,-18.53 -52.9,-44.05zm26.17 113.07l-19.38 -31.47 9.93 -9.93 26.69 26.69 -17.23 14.71zm26.72 -23.45l-23.7 -23.7 0 -13.33c7.4,2.82 15.4,4.36 23.7,4.36 8.31,0 16.3,-1.54 23.7,-4.36l0 13.33 -23.7 23.7zm26.72 23.45l-17.23 -14.71 26.69 -26.69 9.93 9.93 -19.38 31.47z"/>
   <path class="fil0" d="M90.86 311.68l-18.09 0c-3.56,0 -6.44,2.89 -6.44,6.44 0,3.56 2.89,6.45 6.44,6.45l18.09 0c3.56,0 6.44,-2.89 6.44,-6.45 0,-3.56 -2.89,-6.44 -6.44,-6.44z"/>
  </g>
 </g>
</svg>
