<?xml version="1.0" encoding="UTF-8"?>
<!DOCTYPE svg PUBLIC "-//W3C//DTD SVG 1.1//EN" "http://www.w3.org/Graphics/SVG/1.1/DTD/svg11.dtd">
<!-- Creator: CorelDRAW 2017 -->
<svg xmlns="http://www.w3.org/2000/svg" xml:space="preserve" width="76.2mm" height="75.8836mm" version="1.1" style="shape-rendering:geometricPrecision; text-rendering:geometricPrecision; image-rendering:optimizeQuality; fill-rule:evenodd; clip-rule:evenodd"
viewBox="0 0 287.46 286.27"
 xmlns:xlink="http://www.w3.org/1999/xlink">
 <defs>
  <style type="text/css">
   <![CDATA[
    .fil0 {fill:#15949D}
   ]]>
  </style>
 </defs>
 <g id="Capa_x0020_1">
  <metadata id="CorelCorpID_0Corel-Layer"/>
  <g id="_1814350033024">
   <path class="fil0" d="M215.21 197.94l0 -28.88c0,-2.34 -1.89,-4.23 -4.23,-4.23 -2.34,0 -4.23,1.89 -4.23,4.23l0 28.88c-4.97,1.75 -8.54,6.49 -8.54,12.05 0,2.4 0.67,4.65 1.83,6.57l-13.27 14.44c-1.58,1.72 -1.47,4.4 0.25,5.98 0.81,0.75 1.84,1.12 2.86,1.12 1.14,0 2.28,-0.46 3.12,-1.37l13.56 -14.76c1.38,0.51 2.87,0.79 4.43,0.79 7.04,0 12.77,-5.73 12.77,-12.77 0,-5.56 -3.57,-10.3 -8.54,-12.05zm-4.23 16.37c-2.38,0 -4.31,-1.94 -4.31,-4.31 -0,-2.38 1.94,-4.31 4.31,-4.31 2.38,0 4.31,1.94 4.31,4.31 0,2.38 -1.94,4.31 -4.31,4.31z"/>
   <path class="fil0" d="M269.69 161.01l0 -77.84c0.09,-0.35 0.15,-0.71 0.15,-1.08l0 -45.78c0,-2.34 -1.89,-4.23 -4.23,-4.23l-0.15 0 -26.28 0 0 -15.29c0,-9.26 -7.53,-16.78 -16.78,-16.78 -9.26,0 -16.78,7.53 -16.78,16.78l0 15.29 -141.24 0 0 -15.29c0,-9.26 -7.53,-16.78 -16.78,-16.78 -9.25,0 -16.78,7.53 -16.78,16.78l0 15.29 -26.43 0 -0.15 0c-2.34,0 -4.23,1.89 -4.23,4.23l0 204.44c0,2.34 1.89,4.23 4.23,4.23l139.07 -0c12.72,24.51 38.34,41.3 67.81,41.3 42.1,0 76.35,-34.25 76.35,-76.35 0,-18.59 -6.68,-35.65 -17.77,-48.91zm-55.62 -144.23c0,-4.59 3.73,-8.32 8.32,-8.32 4.59,0 8.32,3.73 8.32,8.32l0 33.07c0,0.57 -0.06,1.13 -0.17,1.68 -0.78,3.79 -4.14,6.65 -8.16,6.65 -4.59,0 -8.32,-3.73 -8.32,-8.32l0 -33.07zm-174.81 0c0,-4.59 3.73,-8.32 8.32,-8.32 4.59,0 8.32,3.73 8.32,8.32l0 33.07c0,4.59 -3.73,8.32 -8.32,8.32 -4.59,0 -8.32,-3.73 -8.32,-8.32l0 -33.07zm-30.66 23.75l22.2 0 0 9.33c0,9.26 7.53,16.78 16.78,16.78 9.26,0 16.78,-7.53 16.78,-16.78l0 -9.33 141.24 0 0 9.33c0,9.26 7.53,16.78 16.78,16.78 9.25,0 16.78,-7.53 16.78,-16.78l0 -9.33 22.05 0 0 37.32 -252.63 0 0 -37.32zm-0.15 195.98l0 -150.2 252.77 0 0 66.02c-5.64,-4.9 -11.93,-8.93 -18.67,-11.98 -0.25,-0.11 -0.51,-0.22 -0.76,-0.33 -0.26,-0.11 -0.51,-0.23 -0.77,-0.34 -0.45,-0.19 -0.91,-0.38 -1.36,-0.56 -0.06,-0.02 -0.12,-0.05 -0.17,-0.07 -3.77,-1.52 -7.7,-2.74 -11.74,-3.64l0 -24.85c0,-2.34 -1.89,-4.23 -4.23,-4.23l-27.25 0c-2.34,0 -4.23,1.89 -4.23,4.23l0 25.43c-32.9,8.49 -57.27,38.42 -57.27,73.94 0,0.63 0.01,1.25 0.02,1.88 0,0.14 0.01,0.29 0.01,0.43 0.01,0.5 0.03,1 0.06,1.49 0.01,0.12 0.01,0.24 0.02,0.36 0.03,0.55 0.06,1.09 0.1,1.63 0,0.05 0.01,0.1 0.01,0.16 0.54,7.1 2.05,14 4.53,20.64l-131.07 0zm210.84 -121.73l0 18.79 -18.79 0 0 -18.79 18.79 0zm-8.18 163.03c-35.09,0 -64.05,-26.76 -67.53,-60.94 -0,-0.02 -0,-0.03 -0,-0.05 -0.05,-0.54 -0.1,-1.08 -0.14,-1.62 -0.01,-0.12 -0.02,-0.23 -0.02,-0.35 -0.03,-0.45 -0.06,-0.91 -0.09,-1.36 -0.01,-0.26 -0.02,-0.51 -0.03,-0.77 -0.01,-0.33 -0.03,-0.66 -0.04,-0.98 -0.02,-0.6 -0.02,-1.2 -0.02,-1.81 0,-37.43 30.45,-67.89 67.89,-67.89 0.6,0 1.21,0.01 1.81,0.02 0.1,0 0.21,0.01 0.31,0.01 0.5,0.02 1.01,0.03 1.51,0.06 0.08,0 0.16,0.01 0.24,0.02 0.53,0.03 1.06,0.06 1.6,0.11 0.04,0 0.08,0.01 0.12,0.01 7.82,0.64 15.4,2.63 22.44,5.83 0.24,0.11 0.48,0.22 0.72,0.34 0.25,0.12 0.5,0.23 0.74,0.35 0.43,0.21 0.86,0.42 1.29,0.64 0.04,0.02 0.08,0.04 0.13,0.06 21.94,11.26 36.98,34.13 36.98,60.44 -0,37.43 -30.46,67.89 -67.89,67.89z"/>
   <path class="fil0" d="M247.83 250.22c-1.44,-1.84 -4.09,-2.17 -5.94,-0.74 -8.87,6.91 -19.51,10.56 -30.78,10.56 -27.63,0 -50.12,-22.48 -50.12,-50.12 0,-11 3.49,-21.43 10.1,-30.18 1.41,-1.86 1.04,-4.52 -0.83,-5.93 -1.86,-1.41 -4.52,-1.04 -5.92,0.83 -7.73,10.23 -11.81,22.43 -11.81,35.28 0,32.3 26.28,58.58 58.58,58.58 13.17,0 25.61,-4.27 35.97,-12.35 1.84,-1.44 2.17,-4.09 0.74,-5.94z"/>
   <path class="fil0" d="M211.12 151.34c-13.4,0 -26.01,4.41 -36.47,12.74 -1.83,1.46 -2.13,4.12 -0.67,5.94 1.46,1.83 4.12,2.13 5.94,0.67 8.95,-7.13 19.74,-10.89 31.2,-10.89 27.63,0 50.12,22.48 50.12,50.12 0,11.48 -3.78,22.28 -10.92,31.23 -1.46,1.83 -1.16,4.49 0.67,5.94 0.78,0.62 1.71,0.92 2.64,0.92 1.24,0 2.47,-0.54 3.31,-1.59 8.35,-10.47 12.77,-23.09 12.77,-36.51 0,-32.3 -26.28,-58.58 -58.58,-58.58z"/>
   <path class="fil0" d="M73.71 106.32l-27.25 0c-2.34,0 -4.23,1.89 -4.23,4.23l0 27.25c0,2.34 1.89,4.23 4.23,4.23l27.25 0c2.34,0 4.23,-1.89 4.23,-4.23l0 -27.25c0,-2.34 -1.89,-4.23 -4.23,-4.23zm-4.23 27.25l-18.79 0 0 -18.79 18.79 0 0 18.79 -0 0z"/>
   <path class="fil0" d="M123.65 106.32l-27.25 0c-2.34,0 -4.23,1.89 -4.23,4.23l0 27.25c0,2.34 1.89,4.23 4.23,4.23l27.25 0c2.34,0 4.23,-1.89 4.23,-4.23l0 -27.25c-0,-2.34 -1.89,-4.23 -4.23,-4.23zm-4.23 27.25l-18.79 0 0 -18.79 18.79 0 0 18.79z"/>
   <path class="fil0" d="M173.59 106.32l-27.25 0c-2.34,0 -4.23,1.89 -4.23,4.23l0 27.25c0,2.34 1.89,4.23 4.23,4.23l27.25 0c2.34,0 4.23,-1.89 4.23,-4.23l0 -27.25c-0,-2.34 -1.89,-4.23 -4.23,-4.23zm-4.23 27.25l-18.79 0 0 -18.79 18.79 0 0 18.79z"/>
   <path class="fil0" d="M73.71 164.83l-27.25 0c-2.34,0 -4.23,1.89 -4.23,4.23l0 27.25c0,2.34 1.89,4.23 4.23,4.23l27.25 -0c2.34,0 4.23,-1.89 4.23,-4.23l0 -27.25c0,-2.34 -1.89,-4.23 -4.23,-4.23zm-4.23 27.25l-18.79 0 0 -18.79 18.79 0 0 18.79 -0 0z"/>
   <path class="fil0" d="M123.65 164.83l-27.25 0c-2.34,0 -4.23,1.89 -4.23,4.23l0 27.25c0,2.34 1.89,4.23 4.23,4.23l27.25 -0c2.34,0 4.23,-1.89 4.23,-4.23l0 -27.25c-0,-2.34 -1.89,-4.23 -4.23,-4.23zm-4.23 27.25l-18.79 0 0 -18.79 18.79 0 0 18.79z"/>
  </g>
 </g>
</svg>
