<?xml version="1.0" encoding="UTF-8"?>
<!DOCTYPE svg PUBLIC "-//W3C//DTD SVG 1.1//EN" "http://www.w3.org/Graphics/SVG/1.1/DTD/svg11.dtd">
<!-- Creator: CorelDRAW 2017 -->
<svg xmlns="http://www.w3.org/2000/svg" xml:space="preserve" width="76.2mm" height="76.1987mm" version="1.1" style="shape-rendering:geometricPrecision; text-rendering:geometricPrecision; image-rendering:optimizeQuality; fill-rule:evenodd; clip-rule:evenodd"
viewBox="0 0 387.58 387.57"
 xmlns:xlink="http://www.w3.org/1999/xlink">
 <defs>
  <style type="text/css">
   <![CDATA[
    .fil0 {fill:#C2272C}
   ]]>
  </style>
 </defs>
 <g id="Capa_x0020_1">
  <metadata id="CorelCorpID_0Corel-Layer"/>
  <g id="_1814176613568">
   <path class="fil0" d="M182.94 147.22c2.82,3.52 6.62,5.51 10.71,5.61 4.09,0.09 8.03,-1.76 11.11,-5.23 0.27,-0.29 0.49,-0.62 0.69,-0.95 12.85,-22.53 35.68,-25.69 51.31,-21.54 15.61,4.14 33.83,18.08 33.83,43.74 0,67.76 -72.45,108.77 -94.66,119.73 -1.2,0.59 -2.63,0.59 -3.85,0 -22.2,-10.91 -94.63,-51.79 -94.63,-119.73 0,-25.69 18.23,-39.62 33.84,-43.74 3.73,-0.98 7.86,-1.56 12.16,-1.56 13.77,0 29.3,5.87 38.98,22.93 0.15,0.26 0.32,0.51 0.51,0.75z"/>
   <path class="fil0" d="M128.38 114.12c-25.7,6.79 -42.3,28.28 -42.3,54.74 0,74.5 77.3,118.28 100.98,129.92 4.35,2.15 9.55,2.15 13.91,0 23.69,-11.69 100.99,-55.61 100.99,-129.92 0,-26.44 -16.59,-47.92 -42.28,-54.73 -25.5,-6.76 -50.45,3.55 -63.75,26.3 -0.51,0.49 -1.26,1.06 -1.99,1.05 -0.59,-0.02 -1.26,-0.4 -1.89,-1.08 -13.15,-22.72 -38.09,-33.02 -63.67,-26.27l0 0z"/>
   <path class="fil0" d="M206.89 11.36c44.05,3.06 85.41,21.85 116.45,52.88 31.04,31.04 49.82,72.4 52.89,116.45 0.21,3 2.7,5.29 5.66,5.29 0.13,0 0.27,-0 0.4,-0.01 3.13,-0.22 5.49,-2.94 5.28,-6.07 -6.74,-96.78 -83.26,-173.16 -179.89,-179.89 -3.12,-0.22 -5.85,2.14 -6.06,5.28 -0.22,3.13 2.14,5.85 5.28,6.07l0 0zm0 0z"/>
   <path class="fil0" d="M28.5 301.02l-20.74 67.79c-2.06,6.74 4.26,13.07 11.01,11.01l67.79 -20.74c2.43,-0.75 5.11,-0.4 7.35,0.94 30.11,18.06 65.05,27.57 100.32,27.56 102.08,-0.01 186.26,-78.46 193.35,-180.35 0.22,-3.13 -2.15,-5.85 -5.28,-6.06 -3.14,-0.22 -5.85,2.15 -6.06,5.28 -9.43,135.56 -158.86,214.36 -276.48,143.83 -4.99,-2.99 -11.02,-3.74 -16.52,-2.06l-63.18 19.34 19.34 -63.18c1.69,-5.51 0.93,-11.53 -2.06,-16.52 -70.48,-117.55 8.16,-267.04 143.83,-276.47 3.13,-0.22 5.49,-2.93 5.28,-6.06 -0.22,-3.13 -2.93,-5.49 -6.06,-5.28 -92.96,6.47 -168.31,77.68 -179.08,171.01 -4.91,42.63 4.42,86.19 26.28,122.65 1.34,2.24 1.68,4.91 0.94,7.35l0 0zm0 0z"/>
  </g>
 </g>
</svg>
