<?xml version="1.0" encoding="UTF-8"?>
<!DOCTYPE svg PUBLIC "-//W3C//DTD SVG 1.1//EN" "http://www.w3.org/Graphics/SVG/1.1/DTD/svg11.dtd">
<!-- Creator: CorelDRAW 2017 -->
<svg xmlns="http://www.w3.org/2000/svg" xml:space="preserve" width="76.2mm" height="53.5119mm" version="1.1" style="shape-rendering:geometricPrecision; text-rendering:geometricPrecision; image-rendering:optimizeQuality; fill-rule:evenodd; clip-rule:evenodd"
viewBox="0 0 338.77 237.91"
 xmlns:xlink="http://www.w3.org/1999/xlink">
 <defs>
  <style type="text/css">
   <![CDATA[
    .fil0 {fill:#15949D}
   ]]>
  </style>
 </defs>
 <g id="Capa_x0020_1">
  <metadata id="CorelCorpID_0Corel-Layer"/>
  <g id="_1814539344880">
   <path class="fil0" d="M333.05 209.99l-95.16 0 0 -10.91 4.81 0c8.84,0 16.03,-7.19 16.03,-16.03l0 -54.68c0,-8.84 -7.19,-16.03 -16.03,-16.03l-4.81 0 0 -35.97c0,-42.11 -34.26,-76.37 -76.37,-76.37l-99.09 0c-3.16,0 -5.72,2.56 -5.72,5.72 0,3.16 2.56,5.72 5.72,5.72l99.09 0c35.8,0 64.93,29.13 64.93,64.93l0 150.09 -150.08 0c-35.8,0 -64.92,-29.13 -64.92,-64.93l-0 -126.73c0,-12.88 10.48,-23.35 23.35,-23.35l7.64 0c3.16,0 5.72,-2.56 5.72,-5.72 0,-3.16 -2.56,-5.72 -5.72,-5.72l-7.64 0c-19.19,0 -34.79,15.61 -34.79,34.8l0 126.73c0,42.11 34.26,76.37 76.37,76.37l155.8 0c3.16,0 5.72,-2.56 5.72,-5.72l0 -10.75 89.44 0 0 10.75c0,3.16 2.56,5.72 5.72,5.72 3.16,0 5.72,-2.56 5.72,-5.72l0 -16.47c-0,-3.16 -2.56,-5.72 -5.72,-5.72zm-95.16 -86.2l4.81 0c2.53,0 4.58,2.06 4.58,4.58l0 54.68c0,2.53 -2.06,4.58 -4.58,4.58l-4.81 0 0 -63.85z"/>
   <path class="fil0" d="M118.94 38.17c-44.54,0 -80.78,36.24 -80.78,80.79 0,44.55 36.24,80.79 80.78,80.79 21.74,0 42.14,-8.51 57.43,-23.97 2.22,-2.25 2.2,-5.87 -0.04,-8.09 -2.25,-2.22 -5.87,-2.2 -8.09,0.04 -13.13,13.27 -30.63,20.58 -49.3,20.58 -38.23,0 -69.34,-31.11 -69.34,-69.34 0,-38.24 31.1,-69.34 69.34,-69.34 38.23,0 69.34,31.11 69.34,69.34 0,11.11 -2.54,21.71 -7.56,31.52 -1.44,2.81 -0.32,6.26 2.49,7.7 2.81,1.44 6.26,0.32 7.7,-2.49 5.85,-11.44 8.82,-23.8 8.82,-36.74 0,-44.55 -36.24,-80.79 -80.78,-80.79z"/>
  </g>
 </g>
</svg>
