<?xml version="1.0" encoding="UTF-8"?>
<!DOCTYPE svg PUBLIC "-//W3C//DTD SVG 1.1//EN" "http://www.w3.org/Graphics/SVG/1.1/DTD/svg11.dtd">
<!-- Creator: CorelDRAW 2017 -->
<svg xmlns="http://www.w3.org/2000/svg" xml:space="preserve" width="81.4492mm" height="81.4492mm" version="1.1" style="shape-rendering:geometricPrecision; text-rendering:geometricPrecision; image-rendering:optimizeQuality; fill-rule:evenodd; clip-rule:evenodd"
viewBox="0 0 329.31 329.31"
 xmlns:xlink="http://www.w3.org/1999/xlink">
 <defs>
  <style type="text/css">
   <![CDATA[
    .fil0 {fill:#C4C156;fill-rule:nonzero}
   ]]>
  </style>
 </defs>
 <g id="Capa_x0020_1">
  <metadata id="CorelCorpID_0Corel-Layer"/>
  <path class="fil0" d="M164.65 0c45.47,0 86.64,18.44 116.42,48.23 29.79,29.79 48.23,70.97 48.23,116.42 0,45.47 -18.44,86.64 -48.23,116.42 -29.79,29.79 -70.96,48.23 -116.42,48.23 -45.45,0 -86.64,-18.44 -116.42,-48.23 -29.79,-29.79 -48.23,-70.96 -48.23,-116.42 0,-45.45 18.44,-86.64 48.23,-116.42 29.79,-29.79 70.97,-48.23 116.42,-48.23zm105.01 59.64c-26.87,-26.87 -64.01,-43.5 -105.01,-43.5 -41.01,0 -78.15,16.63 -105.01,43.5 -26.87,26.87 -43.5,64.01 -43.5,105.01 0,41.01 16.63,78.15 43.5,105.01 26.87,26.87 64.01,43.5 105.01,43.5 41.01,0 78.15,-16.63 105.01,-43.5 26.87,-26.87 43.5,-64.01 43.5,-105.01 0,-41.01 -16.63,-78.15 -43.5,-105.01z"/>
 </g>
</svg>
