<?xml version="1.0" encoding="UTF-8"?>
<!DOCTYPE svg PUBLIC "-//W3C//DTD SVG 1.1//EN" "http://www.w3.org/Graphics/SVG/1.1/DTD/svg11.dtd">
<!-- Creator: CorelDRAW 2017 -->
<svg xmlns="http://www.w3.org/2000/svg" xml:space="preserve" width="54.9842mm" height="80.4332mm" version="1.1" style="shape-rendering:geometricPrecision; text-rendering:geometricPrecision; image-rendering:optimizeQuality; fill-rule:evenodd; clip-rule:evenodd"
viewBox="0 0 225.46 329.81"
 xmlns:xlink="http://www.w3.org/1999/xlink">
 <defs>
  <style type="text/css">
   <![CDATA[
    .fil0 {fill:#5D6A6B}
   ]]>
  </style>
 </defs>
 <g id="Capa_x0020_1">
  <metadata id="CorelCorpID_0Corel-Layer"/>
  <g id="_1814242563312">
   <path class="fil0" d="M152.74 282.83c-2.56,0.75 -4.03,3.43 -3.28,5.99 2.14,7.29 2.14,15 0,22.29 -0.75,2.56 0.72,5.24 3.28,5.99 0.45,0.13 0.91,0.2 1.36,0.2 2.09,0 4.02,-1.37 4.63,-3.47 2.66,-9.07 2.66,-18.66 0,-27.73 -0.75,-2.56 -3.44,-4.03 -5.99,-3.28z"/>
   <path class="fil0" d="M76 288.82c0.75,-2.56 -0.72,-5.24 -3.28,-5.99 -2.56,-0.75 -5.24,0.72 -5.99,3.28 -2.66,9.07 -2.66,18.66 0,27.73 0.62,2.11 2.54,3.47 4.63,3.47 0.45,0 0.91,-0.06 1.36,-0.2 2.56,-0.75 4.03,-3.43 3.28,-5.99 -2.14,-7.29 -2.14,-15 0,-22.29z"/>
   <path class="fil0" d="M81.28 75.04c-11.16,0 -20.24,9.18 -20.24,20.46 0,2.67 2.16,4.83 4.83,4.83 2.67,0 4.83,-2.16 4.83,-4.83 0,-5.96 4.75,-10.8 10.58,-10.8 2.67,0 4.83,-2.16 4.83,-4.83 0,-2.67 -2.16,-4.83 -4.83,-4.83z"/>
   <path class="fil0" d="M211.38 218.85l-7.02 0 -14.67 -131.24c-2.39,-21.43 -20.26,-37.59 -41.56,-37.59l-5.8 0 0 -32.69c0,-9.56 -7.7,-17.34 -17.16,-17.34l-24.87 0c-9.46,0 -17.16,7.78 -17.16,17.34l0 32.69 -4.79 -0c-21.16,0 -39.01,16.04 -41.53,37.31l-15.56 131.52 -7.17 0c-7.76,0 -14.08,6.37 -14.08,14.21 0,7.84 6.32,14.21 14.08,14.21l81.49 0 0 28.46c-7.49,5.47 -12.33,14.39 -12.33,24.23 0,16.46 13.23,29.84 29.49,29.84 16.26,0 29.49,-13.39 29.49,-29.84 0,-9.64 -4.66,-18.7 -12.32,-24.27l-0.01 -28.43 81.49 0c7.76,0 14.08,-6.37 14.08,-14.21 0,-7.84 -6.32,-14.21 -14.08,-14.21zm-118.58 -201.52c0,-4.23 3.36,-7.67 7.5,-7.67l24.87 -0c4.14,0 7.5,3.44 7.5,7.67l0 32.69 -15.1 0 0 -26.43c0,-2.67 -2.16,-4.83 -4.83,-4.83 -2.67,0 -4.83,2.16 -4.83,4.83l0 26.43 -15.1 0 0 -32.69zm39.77 282.63c0,11.13 -8.9,20.18 -19.83,20.18 -10.93,0 -19.83,-9.05 -19.83,-20.18 0,-10 7.32,-18.59 17.03,-19.98 2.64,-0.38 4.47,-2.83 4.1,-5.47 -0.38,-2.64 -2.83,-4.47 -5.47,-4.1 -1.13,0.16 -2.24,0.4 -3.32,0.69l0 -23.84 15 0 0.01 31.03c0,1.71 0.91,3.3 2.39,4.17 6.13,3.6 9.94,10.3 9.94,17.49zm78.82 -62.36l-197.3 0c-2.44,0 -4.42,-2.04 -4.42,-4.55 0,-2.51 1.98,-4.55 4.42,-4.55l8.63 0 2.84 0 46.49 0c2.67,0 4.83,-2.16 4.83,-4.83 0,-2.67 -2.16,-4.83 -4.83,-4.83l-41.05 0 15.43 -130.38c1.94,-16.41 15.67,-28.78 31.93,-28.78l69.78 0c16.37,0 30.11,12.47 31.96,29l14.55 130.17 -104.1 0c-2.67,0 -4.83,2.16 -4.83,4.83 0,2.67 2.16,4.83 4.83,4.83l109.5 0 1.48 0 9.86 0c2.44,0 4.42,2.04 4.42,4.55 0,2.51 -1.98,4.55 -4.42,4.55z"/>
  </g>
 </g>
</svg>
