<?xml version="1.0" encoding="UTF-8"?>
<!DOCTYPE svg PUBLIC "-//W3C//DTD SVG 1.1//EN" "http://www.w3.org/Graphics/SVG/1.1/DTD/svg11.dtd">
<!-- Creator: CorelDRAW 2017 -->
<svg xmlns="http://www.w3.org/2000/svg" xml:space="preserve" width="76.2mm" height="75.93mm" version="1.1" style="shape-rendering:geometricPrecision; text-rendering:geometricPrecision; image-rendering:optimizeQuality; fill-rule:evenodd; clip-rule:evenodd"
viewBox="0 0 439.98 438.42"
 xmlns:xlink="http://www.w3.org/1999/xlink">
 <defs>
  <style type="text/css">
   <![CDATA[
    .fil0 {fill:#5D6A6B}
   ]]>
  </style>
 </defs>
 <g id="Capa_x0020_1">
  <metadata id="CorelCorpID_0Corel-Layer"/>
  <g id="_1814178536000">
   <path class="fil0" d="M396.39 284.93c-2.74,-2.33 -6.85,-2 -9.18,0.74 -31.41,36.88 -77.31,58.04 -125.94,58.04 -126.45,0 -205.66,-136.61 -143.96,-246.34 1.77,-3.14 0.64,-7.11 -2.49,-8.87 -3.14,-1.77 -7.12,-0.64 -8.87,2.49 -36.63,65.2 -27.95,143.64 16.13,198.75l-12.93 12.93 -5.22 -5.22c-6.44,-6.44 -16.87,-6.43 -23.29,0l-67.86 67.85c-17.04,17.04 -17.05,44.64 0,61.68 7.54,7.55 17.73,11.43 20.93,11.43 7.51,0 9.04,-10.76 1.73,-12.8 -5.06,-1.4 -9.71,-4.11 -13.44,-7.84 -11.95,-11.95 -11.96,-31.3 0,-43.25l67.85 -67.86c1.29,-1.29 3.56,-1.3 4.86,0.01 1.98,1.98 39.41,38.16 39.41,40.82 0,0.92 -0.36,1.78 -1.01,2.43 -70.81,69.96 -68.02,70.03 -76.67,74.02 -3.27,1.5 -4.7,5.37 -3.19,8.64 1.5,3.27 5.37,4.69 8.65,3.19 12.21,-5.63 11.31,-8.68 80.43,-76.63 3.11,-3.11 4.82,-7.25 4.82,-11.64 0,-9.61 -7.35,-13.4 -10.75,-17.58l12.86 -12.86c75.7,61.16 185.61,50.19 247.88,-22.93 2.33,-2.75 2,-6.86 -0.74,-9.19l-0 0zm-269.22 35.77l-8.8 -8.8 12.24 -12.25c2.82,3.05 5.74,6 8.78,8.83l-12.23 12.22zm0 0z"/>
   <path class="fil0" d="M261.55 0c-53.5,0 -106.15,24.29 -140.64,68.48 -2.22,2.84 -1.71,6.93 1.13,9.15 2.83,2.22 6.93,1.7 9.14,-1.13 31.02,-39.74 79.75,-63.47 130.37,-63.47 127.61,0 209.27,140.86 140.4,252.39 -2.69,4.36 0.5,9.94 5.55,9.94 2.18,0 4.32,-1.09 5.54,-3.09 73.67,-119.13 -12.55,-272.27 -151.48,-272.27l0 0zm0 0z"/>
   <path class="fil0" d="M186.04 300.93c67.76,41.66 156.27,20.54 197.93,-47.19 59.07,-96.05 -10.93,-219.21 -122.32,-219.21 -48.36,0 -95.65,24.34 -122.79,68.48 -41.66,67.73 -20.54,156.26 47.19,197.92l0 0zm-36.09 -191.1c37.79,-61.45 118.54,-80.71 179.99,-42.91 61.46,37.8 80.71,118.54 42.92,180 -37.89,61.6 -118.4,80.8 -180,42.91 -61.6,-37.88 -80.8,-118.38 -42.92,-180l-0 0zm0 0z"/>
   <path class="fil0" d="M285.13 199.82l0 31.92c0,22.24 14.25,35.52 38.11,35.52 23.87,0 38.11,-13.28 38.11,-35.52l0 -31.92c0,-22.24 -14.24,-35.52 -38.11,-35.52 -23.86,0 -38.11,13.28 -38.11,35.52zm13.03 0c0,-15.13 8.2,-22.49 25.08,-22.49 16.87,0 25.07,7.36 25.07,22.49l0 31.92c0,15.14 -8.2,22.49 -25.07,22.49 -16.87,0 -25.08,-7.35 -25.08,-22.49l0 -31.92zm0 0z"/>
   <path class="fil0" d="M323.24 248.51c11.2,0 17.63,-6.11 17.63,-16.76l0 -31.92c0,-10.65 -6.43,-16.76 -17.63,-16.76 -11.06,0 -17.41,6.11 -17.41,16.76l0 31.92c0,10.65 6.35,16.76 17.41,16.76zm-4.38 -48.68c0,-3.09 0,-3.73 4.38,-3.73 4.6,0 4.6,0.94 4.6,3.73l0 31.92c0,2.79 0,3.73 -4.6,3.73 -4.38,0 -4.38,-0.72 -4.38,-3.73l0 -31.92zm0 0z"/>
   <path class="fil0" d="M199.58 175.18c11.2,0 17.63,-6.11 17.63,-16.76l0 -31.92c0,-10.65 -6.43,-16.76 -17.63,-16.76 -11.06,0 -17.41,6.11 -17.41,16.76l0 31.92c0,10.65 6.35,16.76 17.41,16.76zm-4.38 -48.68c0,-3.01 0,-3.73 4.38,-3.73 4.6,0 4.6,0.94 4.6,3.73l0 31.92c0,2.79 0,3.73 -4.6,3.73 -4.38,0 -4.38,-0.64 -4.38,-3.73l0 -31.92zm0 0z"/>
   <path class="fil0" d="M199.58 193.94c23.87,0 38.11,-13.29 38.11,-35.52l0 -31.92c0,-22.24 -14.24,-35.52 -38.11,-35.52 -23.86,0 -38.11,13.28 -38.11,35.52l0 31.92c0,22.23 14.25,35.52 38.11,35.52zm-25.08 -67.44c0,-15.14 8.2,-22.49 25.08,-22.49 16.87,0 25.08,7.35 25.08,22.49l0 31.92c0,15.12 -8.2,22.49 -25.08,22.49 -16.87,0 -25.08,-7.36 -25.08,-22.49l0 -31.92zm0 0z"/>
   <path class="fil0" d="M205.18 257.2c0,8.19 7,16.98 17.4,16.98 6.59,0 12.62,-3.56 15.38,-9.06 83.56,-166.74 81.53,-160.55 80.75,-165.63 -0.29,-17.28 -25.2,-23.64 -32.62,-7.96 -30.44,61.12 -49.62,99.4 -61.09,122.28 -19.71,39.33 -20.06,39.52 -19.82,43.39l0 0zm92.68 -160.07c1.46,-3.13 7.81,-1.02 7.81,2.63 0,0.24 0.01,0.45 0.03,0.65 -2.14,5.41 -17.98,36.32 -79.4,158.86 -0.55,1.09 -2.07,1.87 -3.72,1.87 -2.91,0 -4.37,-2.53 -4.37,-3.94l0 -0.23c1.34,-3.42 75.9,-152.34 79.65,-159.85l0 -0zm0 0z"/>
   <path class="fil0" d="M70.12 395.09c0,-13.17 -10.71,-23.89 -23.89,-23.89 -13.17,0 -23.89,10.72 -23.89,23.89 0,13.17 10.72,23.9 23.89,23.9 13.18,0 23.89,-10.72 23.89,-23.9zm-23.89 10.86c-5.98,0 -10.86,-4.87 -10.86,-10.86 0,-5.98 4.88,-10.86 10.86,-10.86 5.99,0 10.86,4.87 10.86,10.86 0,5.99 -4.88,10.86 -10.86,10.86zm0 0z"/>
  </g>
 </g>
</svg>
