<?xml version="1.0" encoding="UTF-8"?>
<!DOCTYPE svg PUBLIC "-//W3C//DTD SVG 1.1//EN" "http://www.w3.org/Graphics/SVG/1.1/DTD/svg11.dtd">
<!-- Creator: CorelDRAW 2017 -->
<svg xmlns="http://www.w3.org/2000/svg" xml:space="preserve" width="76.2mm" height="71.5344mm" version="1.1" style="shape-rendering:geometricPrecision; text-rendering:geometricPrecision; image-rendering:optimizeQuality; fill-rule:evenodd; clip-rule:evenodd"
viewBox="0 0 849.93 797.89"
 xmlns:xlink="http://www.w3.org/1999/xlink">
 <defs>
  <style type="text/css">
   <![CDATA[
    .fil0 {fill:#D89803}
   ]]>
  </style>
 </defs>
 <g id="Capa_x0020_1">
  <metadata id="CorelCorpID_0Corel-Layer"/>
  <g id="_1814345522832">
   <polygon class="fil0" points="772.29,332.39 425.04,558.64 77.79,332.39 0.15,372.81 425.04,648.56 849.93,372.81 "/>
   <polygon class="fil0" points="772.29,481.72 425.04,707.96 77.79,481.72 0.15,522.13 425.04,797.89 849.93,522.13 "/>
   <polygon class="fil0" points="257.57,87.36 180.25,128.48 299.57,205.69 374.78,159.91 "/>
   <polygon class="fil0" points="298.76,264.45 177.67,338.16 261.28,392.64 379.07,316.42 "/>
   <polygon class="fil0" points="422.24,189.29 345.98,235.71 424.88,286.77 500.58,237.79 "/>
   <polygon class="fil0" points="547.41,266.78 470.7,316.42 588.5,392.64 667.54,341.14 "/>
   <polygon class="fil0" points="590.87,86.65 469.94,160.26 546.83,207.86 669.52,128.48 "/>
   <polygon class="fil0" points="424.88,346.06 306.94,422.38 424.89,499.24 542.84,422.38 "/>
   <polygon class="fil0" points="129.96,155.24 -0,223.48 131.43,308.04 252.36,234.43 "/>
   <polygon class="fil0" points="424.89,0 308.45,60.29 422.47,130.88 539.79,59.47 "/>
   <polygon class="fil0" points="719.8,155.23 593.66,236.85 713.62,311.12 849.78,223.48 "/>
  </g>
 </g>
</svg>
