<?xml version="1.0" encoding="UTF-8"?>
<!DOCTYPE svg PUBLIC "-//W3C//DTD SVG 1.1//EN" "http://www.w3.org/Graphics/SVG/1.1/DTD/svg11.dtd">
<!-- Creator: CorelDRAW 2017 -->
<svg xmlns="http://www.w3.org/2000/svg" xml:space="preserve" width="76.2mm" height="80.0589mm" version="1.1" style="shape-rendering:geometricPrecision; text-rendering:geometricPrecision; image-rendering:optimizeQuality; fill-rule:evenodd; clip-rule:evenodd"
viewBox="0 0 287.46 302.02"
 xmlns:xlink="http://www.w3.org/1999/xlink">
 <defs>
  <style type="text/css">
   <![CDATA[
    .fil0 {fill:#15949D}
   ]]>
  </style>
 </defs>
 <g id="Capa_x0020_1">
  <metadata id="CorelCorpID_0Corel-Layer"/>
  <g id="_1814548216560">
   <path class="fil0" d="M160.56 185.52l-33.65 0c-0.41,0 -0.75,-0.34 -0.75,-0.75l0 -15.67c-0,-0.41 0.34,-0.75 0.75,-0.75l39.66 0c2.91,0 5.26,-2.36 5.26,-5.26 0,-2.91 -2.36,-5.26 -5.26,-5.26l-17.57 -0 0 -10.56c0,-2.91 -2.36,-5.26 -5.26,-5.26 -2.91,0 -5.26,2.36 -5.26,5.26l0 10.56 -11.56 0c-6.22,0 -11.28,5.06 -11.28,11.28l0 15.67c0,6.22 5.06,11.28 11.28,11.28l33.65 -0c0.41,0 0.75,0.34 0.75,0.75l0 15.67c0,0.41 -0.34,0.75 -0.75,0.75l-39.66 0c-2.91,0 -5.26,2.36 -5.26,5.26 0,2.91 2.36,5.26 5.26,5.26l17.57 0 0 10.56c0,2.91 2.36,5.26 5.26,5.26 2.91,0 5.26,-2.36 5.26,-5.26l0 -10.56 11.56 0c6.22,0 11.28,-5.06 11.28,-11.28l0 -15.67c0,-6.22 -5.06,-11.28 -11.28,-11.28z"/>
   <path class="fil0" d="M240.06 152.4c-2.91,0 -5.26,2.36 -5.26,5.26l0 133.83 -24.86 0c-2.91,0 -5.26,2.36 -5.26,5.26 0,2.91 2.36,5.26 5.26,5.26l30.13 0c2.91,0 5.26,-2.36 5.26,-5.26l0 -139.1c0,-2.91 -2.36,-5.26 -5.26,-5.26z"/>
   <path class="fil0" d="M285.92 137.77l-136.23 -136.23c-2.06,-2.06 -5.39,-2.06 -7.45,0l-85.34 85.34c-2.06,2.06 -2.06,5.39 0,7.44 2.06,2.06 5.39,2.06 7.45,0l81.62 -81.62 130.97 130.97 0 17.09 -127.25 -127.24c-0.99,-0.99 -2.33,-1.54 -3.72,-1.54 -1.4,0 -2.73,0.55 -3.72,1.54l-131.71 131.71 0 -17.09 40.13 -40.13c2.06,-2.06 2.06,-5.39 0,-7.44 -2.06,-2.06 -5.39,-2.06 -7.45,0l-41.68 41.67c-0.99,0.99 -1.54,2.33 -1.54,3.72l0 31.98c0,2.13 1.28,4.05 3.25,4.86 0.65,0.27 1.34,0.4 2.01,0.4 1.37,0 2.72,-0.53 3.72,-1.54l33.15 -33.15 0 148.24c0,2.91 2.36,5.26 5.26,5.26l145.69 0c2.91,0 5.26,-2.36 5.26,-5.26 0,-2.91 -2.36,-5.26 -5.26,-5.26l-140.42 0 0 -153.51 93.3 -93.3 132.51 132.51c1.51,1.51 3.77,1.96 5.74,1.14 1.97,-0.81 3.25,-2.73 3.25,-4.86l0 -31.98c0,-1.4 -0.55,-2.73 -1.54,-3.72z"/>
  </g>
 </g>
</svg>
