<?xml version="1.0" encoding="UTF-8"?>
<!DOCTYPE svg PUBLIC "-//W3C//DTD SVG 1.1//EN" "http://www.w3.org/Graphics/SVG/1.1/DTD/svg11.dtd">
<!-- Creator: CorelDRAW 2017 -->
<svg xmlns="http://www.w3.org/2000/svg" xml:space="preserve" width="81.4493mm" height="46.7492mm" version="1.1" style="shape-rendering:geometricPrecision; text-rendering:geometricPrecision; image-rendering:optimizeQuality; fill-rule:evenodd; clip-rule:evenodd"
viewBox="0 0 1386.36 795.73"
 xmlns:xlink="http://www.w3.org/1999/xlink">
 <defs>
  <style type="text/css">
   <![CDATA[
    .fil0 {fill:#8F9D9E;fill-rule:nonzero}
   ]]>
  </style>
 </defs>
 <g id="Capa_x0020_1">
  <metadata id="CorelCorpID_0Corel-Layer"/>
  <path class="fil0" d="M631.4 398.76c0,11.29 -2.81,22.52 -8.48,33.74 -5.61,11.23 -14.03,20.6 -25.26,28.07l-500.18 327.69c-6.25,4.98 -14.35,7.46 -24.37,7.46 -16.27,0 -32.53,-6.89 -48.74,-20.61 -16.2,-13.71 -24.37,-31.19 -24.37,-52.44 0,-9.95 2.55,-19.01 7.53,-27.11 4.98,-8.1 10.59,-14.67 16.84,-19.65l421.53 -277.17 -421.53 -278.96c-16.2,-8.74 -24.37,-23.73 -24.37,-44.91 0,-21.24 8.17,-39.04 24.37,-53.39 16.2,-14.35 32.47,-21.5 48.74,-21.5 10.02,0 18.12,2.49 24.37,7.46l500.18 327.69c9.95,7.46 18.12,17.16 24.3,28.96 6.32,11.86 9.44,23.41 9.44,34.64zm754.96 0c0,11.29 -2.81,22.52 -8.42,33.74 -5.61,11.23 -14.03,20.6 -25.26,28.07l-500.18 327.69c-6.25,4.98 -14.42,7.46 -24.43,7.46 -16.2,0 -32.47,-6.89 -48.67,-20.61 -16.2,-13.71 -24.37,-31.19 -24.37,-52.44 0,-9.95 2.55,-19.01 7.53,-27.11 4.98,-8.1 10.59,-14.67 16.84,-19.65l421.53 -277.17 -421.53 -278.96c-16.2,-8.74 -24.37,-23.73 -24.37,-44.91 0,-21.24 8.17,-39.04 24.37,-53.39 16.2,-14.35 32.47,-21.5 48.67,-21.5 10.02,0 18.18,2.49 24.43,7.46l500.18 327.69c9.95,7.46 18.12,17.16 24.3,28.96 6.25,11.86 9.38,23.41 9.38,34.64z"/>
 </g>
</svg>
