<?xml version="1.0" encoding="UTF-8"?>
<!DOCTYPE svg PUBLIC "-//W3C//DTD SVG 1.1//EN" "http://www.w3.org/Graphics/SVG/1.1/DTD/svg11.dtd">
<!-- Creator: CorelDRAW 2017 -->
<svg xmlns="http://www.w3.org/2000/svg" xml:space="preserve" width="76.2mm" height="82.811mm" version="1.1" style="shape-rendering:geometricPrecision; text-rendering:geometricPrecision; image-rendering:optimizeQuality; fill-rule:evenodd; clip-rule:evenodd"
viewBox="0 0 338.77 368.17"
 xmlns:xlink="http://www.w3.org/1999/xlink">
 <defs>
  <style type="text/css">
   <![CDATA[
    .fil0 {fill:#15949D}
   ]]>
  </style>
 </defs>
 <g id="Capa_x0020_1">
  <metadata id="CorelCorpID_0Corel-Layer"/>
  <path class="fil0" d="M319.37 177.97l-4.46 0c-3.06,-8.37 -11.04,-14.17 -20.38,-14.17l-137.17 0c-3.57,0 -6.94,0.86 -9.92,2.38l0 -140.33c0,-3.33 -2.7,-6.02 -6.02,-6.02 -2.87,0 -5.27,2.01 -5.87,4.71l0 -0.78c-0,-13.09 -10.65,-23.74 -23.74,-23.74l-88.07 0c-13.09,0 -23.74,10.65 -23.74,23.74l0 9.74c0,4.28 2.61,7.95 6.33,9.52l0 122.76c0,7.97 3.29,15.43 8.9,20.79 -2.08,3.09 -3.3,6.81 -3.3,10.81 0,10.7 8.7,19.4 19.4,19.4l34.98 0 0 56.86c0,13.83 11.13,25.11 24.91,25.34l-9.01 62.3c-0.25,1.73 0.26,3.48 1.41,4.8 1.14,1.32 2.81,2.08 4.55,2.08l128.27 0c1.84,0 3.58,-0.84 4.73,-2.29 1.14,-1.45 1.56,-3.34 1.13,-5.13l-14.72 -61.76 27.6 0c23.73,0 46.13,-9.14 63.09,-25.73 15.72,-15.39 25.14,-35.59 26.84,-57.35 7.91,-2.45 13.67,-9.84 13.67,-18.54 -0,-10.7 -8.7,-19.4 -19.4,-19.4zm-162 -2.13l137.17 0c2.3,0 4.4,0.8 6.07,2.13l-149.3 0c1.66,-1.33 3.77,-2.13 6.06,-2.13zm-28.91 -10.07l0 -98.74c3.06,-1.36 5.19,-4.42 5.19,-7.98 0,-3.56 -2.13,-6.62 -5.19,-7.98l0 -7.79c3.6,-1.19 6.31,-4.31 6.94,-8.12l0 140.68c0,0.75 0.14,1.46 0.39,2.12l-10.09 -0c1.78,-3.78 2.76,-7.94 2.76,-12.2zm-116.42 -134l0 -8.02c0,-6.45 5.24,-11.7 11.69,-11.7l88.07 0c6.45,0 11.69,5.25 11.69,11.7l0 8.02 -111.46 -0zm6.33 134l0 -121.95 98.05 0 0 121.95c0,4.61 -1.96,9.04 -5.31,12.2l-79.78 0c-2.23,0 -4.37,0.38 -6.37,1.08 -4.12,-3.15 -6.59,-8.03 -6.59,-13.28zm271.47 98.88c-14.69,14.37 -34.1,22.29 -54.66,22.29l-35.23 0c-1.84,0 -3.58,0.84 -4.73,2.29 -1.14,1.45 -1.56,3.34 -1.13,5.13l14.72 61.76 -113.7 -0 9.01 -62.3c0.25,-1.73 -0.26,-3.48 -1.41,-4.8 -1.14,-1.32 -2.81,-2.08 -4.55,-2.08l-6.52 0c-7.33,0 -13.3,-5.97 -13.3,-13.3l0 -56.86 234.59 0c-1.84,18.15 -9.91,34.97 -23.1,47.87zm29.53 -59.91l-288.04 0c-4.06,0 -7.36,-3.3 -7.36,-7.36 0,-4.06 3.3,-7.36 7.36,-7.36l278.81 0c0,0 0.01,0 0.01,0 0,0 0.01,-0 0.01,-0l9.21 0c4.06,0 7.36,3.3 7.36,7.36 0,4.06 -3.3,7.36 -7.36,7.36z"/>
 </g>
</svg>
