<?xml version="1.0" encoding="UTF-8"?>
<!DOCTYPE svg PUBLIC "-//W3C//DTD SVG 1.1//EN" "http://www.w3.org/Graphics/SVG/1.1/DTD/svg11.dtd">
<!-- Creator: CorelDRAW 2017 -->
<svg xmlns="http://www.w3.org/2000/svg" xml:space="preserve" width="76.2mm" height="75.8844mm" version="1.1" style="shape-rendering:geometricPrecision; text-rendering:geometricPrecision; image-rendering:optimizeQuality; fill-rule:evenodd; clip-rule:evenodd"
viewBox="0 0 439.98 438.15"
 xmlns:xlink="http://www.w3.org/1999/xlink">
 <defs>
  <style type="text/css">
   <![CDATA[
    .fil0 {fill:#5D6A6B}
   ]]>
  </style>
 </defs>
 <g id="Capa_x0020_1">
  <metadata id="CorelCorpID_0Corel-Layer"/>
  <g id="_1814539317424">
   <path class="fil0" d="M329.38 302.96l0 -44.2c0,-3.58 -2.9,-6.47 -6.47,-6.47 -3.58,0 -6.47,2.9 -6.47,6.47l0 44.2c-7.61,2.68 -13.08,9.93 -13.08,18.45 0,3.68 1.02,7.12 2.79,10.06l-20.31 22.1c-2.42,2.63 -2.25,6.73 0.39,9.15 1.24,1.14 2.81,1.71 4.38,1.71 1.75,0 3.49,-0.7 4.77,-2.09l20.75 -22.59c2.11,0.78 4.4,1.21 6.78,1.21 10.78,0 19.55,-8.77 19.55,-19.55 0,-8.51 -5.47,-15.77 -13.08,-18.44zm-6.47 25.05c-3.64,0 -6.6,-2.96 -6.6,-6.6 -0,-3.64 2.96,-6.6 6.6,-6.6 3.64,0 6.6,2.96 6.6,6.6 0,3.64 -2.96,6.6 -6.6,6.6z"/>
   <path class="fil0" d="M412.78 246.44l0 -119.15c0.14,-0.53 0.22,-1.09 0.22,-1.66l0 -70.07c0,-3.58 -2.9,-6.47 -6.47,-6.47l-0.22 0 -40.23 0 0 -23.4c0,-14.17 -11.52,-25.69 -25.69,-25.69 -14.17,0 -25.69,11.52 -25.69,25.69l0 23.4 -216.18 0 0 -23.4c0,-14.17 -11.52,-25.69 -25.69,-25.69 -14.16,0 -25.69,11.53 -25.69,25.69l0 23.4 -40.45 0 -0.22 0c-3.58,0 -6.47,2.9 -6.47,6.47l0 312.91c0,3.58 2.9,6.47 6.47,6.47l212.86 -0c19.47,37.52 58.68,63.21 103.79,63.21 64.43,0 116.85,-52.42 116.85,-116.85 0,-28.46 -10.23,-54.57 -27.2,-74.86zm-85.13 -220.75c0,-7.03 5.72,-12.74 12.74,-12.74 7.03,0 12.74,5.72 12.74,12.74l0 50.62c0,0.88 -0.09,1.74 -0.26,2.56 -1.19,5.8 -6.34,10.18 -12.48,10.18 -7.03,0 -12.74,-5.72 -12.74,-12.74l0 -50.62zm-267.55 0c0,-7.03 5.72,-12.74 12.74,-12.74 7.02,0 12.74,5.72 12.74,12.74l0 50.62c0,7.03 -5.72,12.74 -12.74,12.74 -7.02,0 -12.74,-5.72 -12.74,-12.74l0 -50.62zm-46.92 36.34l33.98 0 0 14.28c0,14.17 11.52,25.69 25.69,25.69 14.17,0 25.69,-11.52 25.69,-25.69l0 -14.28 216.18 0 0 14.28c0,14.17 11.52,25.69 25.69,25.69 14.17,0 25.69,-11.52 25.69,-25.69l-0 -14.28 33.75 0 0 57.13 -386.66 0 0 -57.13zm-0.22 299.96l0 -229.89 386.88 0 0 101.04c-8.63,-7.51 -18.26,-13.67 -28.57,-18.33 -0.39,-0.18 -0.78,-0.34 -1.16,-0.51 -0.39,-0.17 -0.79,-0.35 -1.18,-0.52 -0.69,-0.3 -1.39,-0.58 -2.09,-0.86 -0.09,-0.04 -0.18,-0.07 -0.27,-0.11 -5.78,-2.32 -11.78,-4.19 -17.97,-5.57l0 -38.04c0,-3.58 -2.9,-6.47 -6.47,-6.47l-41.71 0c-3.58,0 -6.47,2.9 -6.47,6.47l0 38.93c-50.35,13 -87.66,58.81 -87.66,113.16 0,0.96 0.01,1.92 0.04,2.87 0.01,0.22 0.01,0.44 0.02,0.66 0.02,0.76 0.05,1.53 0.09,2.29 0.01,0.18 0.02,0.36 0.03,0.55 0.04,0.83 0.1,1.67 0.16,2.5 0.01,0.08 0.01,0.16 0.02,0.24 0.83,10.86 3.14,21.43 6.93,31.59l-200.61 0zm322.69 -186.32l0 28.76 -28.76 0 0 -28.76 28.76 0zm-12.52 249.52c-53.71,0 -98.02,-40.96 -103.37,-93.28 -0,-0.02 -0,-0.05 -0.01,-0.07 -0.08,-0.82 -0.16,-1.65 -0.22,-2.48 -0.01,-0.18 -0.02,-0.36 -0.04,-0.54 -0.05,-0.69 -0.1,-1.39 -0.13,-2.09 -0.02,-0.39 -0.03,-0.79 -0.05,-1.18 -0.02,-0.5 -0.04,-1 -0.06,-1.51 -0.02,-0.92 -0.04,-1.84 -0.04,-2.76 0,-57.29 46.61,-103.91 103.91,-103.91 0.92,0 1.85,0.01 2.77,0.04 0.16,0 0.32,0.01 0.48,0.02 0.77,0.02 1.54,0.05 2.31,0.09 0.12,0.01 0.24,0.02 0.36,0.02 0.81,0.05 1.63,0.1 2.44,0.17 0.06,0.01 0.12,0.01 0.18,0.02 11.96,0.99 23.57,4.03 34.35,8.92 0.37,0.17 0.74,0.34 1.11,0.52 0.38,0.18 0.76,0.35 1.14,0.53 0.66,0.32 1.32,0.65 1.98,0.98 0.06,0.03 0.13,0.06 0.19,0.1 33.58,17.24 56.6,52.23 56.6,92.5 -0,57.3 -46.61,103.91 -103.91,103.91z"/>
   <path class="fil0" d="M379.31 382.97c-2.2,-2.82 -6.27,-3.33 -9.09,-1.13 -13.57,10.57 -29.86,16.16 -47.1,16.16 -42.3,0 -76.71,-34.41 -76.71,-76.71 0,-16.83 5.35,-32.81 15.46,-46.19 2.16,-2.85 1.59,-6.91 -1.26,-9.07 -2.85,-2.16 -6.91,-1.59 -9.07,1.26 -11.83,15.65 -18.08,34.33 -18.08,54 0,49.44 40.22,89.66 89.65,89.66 20.16,0 39.2,-6.53 55.06,-18.9 2.82,-2.2 3.33,-6.27 1.13,-9.09z"/>
   <path class="fil0" d="M323.12 231.64c-20.51,0 -39.81,6.74 -55.82,19.5 -2.8,2.23 -3.26,6.3 -1.03,9.1 2.23,2.8 6.3,3.26 9.1,1.03 13.69,-10.91 30.21,-16.68 47.76,-16.68 42.3,0 76.71,34.41 76.71,76.71 0,17.57 -5.78,34.1 -16.71,47.81 -2.23,2.79 -1.77,6.87 1.02,9.1 1.19,0.95 2.62,1.41 4.03,1.41 1.9,0 3.79,-0.83 5.06,-2.44 12.79,-16.02 19.54,-35.34 19.54,-55.88 0,-49.43 -40.22,-89.65 -89.65,-89.65z"/>
   <path class="fil0" d="M112.82 162.73l-41.71 0c-3.58,0 -6.47,2.9 -6.47,6.47l0 41.71c0,3.58 2.9,6.47 6.47,6.47l41.71 -0c3.58,0 6.47,-2.9 6.47,-6.47l0 -41.71c0,-3.58 -2.9,-6.47 -6.47,-6.47zm-6.47 41.71l-28.76 0 0 -28.76 28.76 0 0 28.76 -0 0z"/>
   <path class="fil0" d="M189.25 162.73l-41.71 0c-3.58,0 -6.47,2.9 -6.47,6.47l0 41.71c0,3.58 2.9,6.47 6.47,6.47l41.71 -0c3.58,0 6.47,-2.9 6.47,-6.47l0 -41.71c-0,-3.58 -2.9,-6.47 -6.47,-6.47zm-6.47 41.71l-28.76 0 0 -28.76 28.76 0 0 28.76z"/>
   <path class="fil0" d="M265.68 162.73l-41.71 0c-3.58,0 -6.47,2.9 -6.47,6.47l0 41.71c0,3.58 2.9,6.47 6.47,6.47l41.71 0c3.58,0 6.47,-2.9 6.47,-6.47l0 -41.71c-0,-3.58 -2.9,-6.47 -6.47,-6.47zm-6.47 41.71l-28.76 0 0 -28.76 28.76 0 0 28.76z"/>
   <path class="fil0" d="M112.82 252.28l-41.71 0c-3.58,0 -6.47,2.9 -6.47,6.47l0 41.71c0,3.58 2.9,6.47 6.47,6.47l41.71 0c3.58,0 6.47,-2.9 6.47,-6.47l0 -41.71c0,-3.58 -2.9,-6.47 -6.47,-6.47zm-6.47 41.71l-28.76 0 0 -28.76 28.76 0 0 28.76 -0 0z"/>
   <path class="fil0" d="M189.25 252.28l-41.71 0c-3.58,0 -6.47,2.9 -6.47,6.47l0 41.71c0,3.58 2.9,6.47 6.47,6.47l41.71 0c3.58,0 6.47,-2.9 6.47,-6.47l0 -41.71c-0,-3.58 -2.9,-6.47 -6.47,-6.47zm-6.47 41.71l-28.76 0 0 -28.76 28.76 0 0 28.76z"/>
  </g>
 </g>
</svg>
