<?xml version="1.0" encoding="UTF-8"?>
<!DOCTYPE svg PUBLIC "-//W3C//DTD SVG 1.1//EN" "http://www.w3.org/Graphics/SVG/1.1/DTD/svg11.dtd">
<!-- Creator: CorelDRAW 2017 -->
<svg xmlns="http://www.w3.org/2000/svg" xml:space="preserve" width="76.2mm" height="71.9654mm" version="1.1" style="shape-rendering:geometricPrecision; text-rendering:geometricPrecision; image-rendering:optimizeQuality; fill-rule:evenodd; clip-rule:evenodd"
viewBox="0 0 1241.89 1172.87"
 xmlns:xlink="http://www.w3.org/1999/xlink">
 <defs>
  <style type="text/css">
   <![CDATA[
    .fil0 {fill:#C4C156}
   ]]>
  </style>
 </defs>
 <g id="Capa_x0020_1">
  <metadata id="CorelCorpID_0Corel-Layer"/>
  <g id="_1814178534464">
   <path class="fil0" d="M810.64 458.83l-8.74 0 0 -141.92c0,-14.26 -11.6,-25.87 -25.87,-25.87l-134.46 0c-14.26,0 -25.87,11.6 -25.87,25.87l0 141.92 -8.75 0c-10.26,0 -18.57,8.32 -18.57,18.57 0,10.26 8.32,18.57 18.57,18.57l27.32 0 149.05 0 27.32 0c10.26,0 18.57,-8.32 18.57,-18.57 0,-10.26 -8.31,-18.57 -18.57,-18.57zm-45.89 0l-111.9 0 0 -130.64 111.9 -0 0 130.64z"/>
   <path class="fil0" d="M1064.57 458.83l-8.74 0 0 -141.92c0,-14.26 -11.6,-25.87 -25.87,-25.87l-134.46 0c-14.26,0 -25.87,11.6 -25.87,25.87l0 141.92 -8.74 0c-10.26,0 -18.57,8.32 -18.57,18.57 0,10.26 8.32,18.57 18.57,18.57l27.31 0 149.05 0 27.32 0c10.26,0 18.57,-8.32 18.57,-18.57 0,-10.26 -8.31,-18.57 -18.57,-18.57zm-45.89 0l-111.9 0 0 -130.64 111.9 -0 0 130.64z"/>
   <path class="fil0" d="M1063.76 830.27l-184.34 0c-16.92,0 -30.68,13.77 -30.68,30.68l0 149.89c0,10.26 8.32,18.57 18.57,18.57l208.56 0c10.26,0 18.57,-8.32 18.57,-18.57l0 -149.89c0,-16.92 -13.77,-30.68 -30.68,-30.68zm-6.46 162l-171.41 0 0 -124.85 171.41 0 0 124.85z"/>
   <path class="fil0" d="M746.06 929.84c-10.26,0 -18.57,8.32 -18.57,18.57l0 32.19c0,10.26 8.32,18.57 18.57,18.57 10.26,0 18.57,-8.32 18.57,-18.57l0 -32.19c0,-10.26 -8.32,-18.57 -18.57,-18.57z"/>
   <path class="fil0" d="M1193.36 1078.35l-50.48 0 0 -412.73 12.8 0c14.44,0 26.18,-11.75 26.18,-26.18l0 -43.91c0,-14.44 -11.74,-26.18 -26.18,-26.18l-12.8 -0 0 -255.15 25.65 17.06c7.94,5.29 17.04,7.93 26.15,7.93 9.1,0 18.21,-2.64 26.15,-7.92 13.19,-8.77 21.06,-23.47 21.06,-39.3 0,-15.84 -7.87,-30.53 -21.06,-39.31l-98.97 -65.83c-8.54,-5.68 -20.07,-3.36 -25.75,5.18 -5.68,8.54 -3.36,20.07 5.18,25.75l98.97 65.83c4.05,2.69 4.49,6.76 4.49,8.38 0,1.62 -0.44,5.68 -4.49,8.38 -3.39,2.25 -7.76,2.25 -11.14,-0l-341.16 -226.94c-9.24,-6.14 -21.19,-6.15 -30.43,0l-341.15 226.94c-3.38,2.25 -7.76,2.25 -11.15,0 -4.05,-2.69 -4.49,-6.76 -4.49,-8.38 0,-1.62 0.44,-5.68 4.49,-8.38l367.51 -244.47 172.22 114.56c8.54,5.68 20.07,3.36 25.75,-5.18 5.68,-8.54 3.36,-20.07 -5.18,-25.75l-177.58 -118.13c-9.24,-6.14 -21.19,-6.15 -30.43,0l-110.71 73.65 0 -29.59c0,-14.43 -11.75,-26.18 -26.18,-26.18l-123.14 0c-14.43,0 -26.18,11.74 -26.18,26.18l0 36.33c0,12.18 8.37,22.41 19.66,25.32l0 71.61 -106.32 70.73c-13.19,8.77 -21.06,23.47 -21.06,39.31 0,15.84 7.87,30.53 21.06,39.3 15.89,10.57 36.41,10.57 52.29,0l25.65 -17.07 0 225.71 -209.79 -95.48c-7.55,-3.44 -16.21,-3.44 -23.75,0l-277.51 126.31c-6.77,2.77 -11.55,9.42 -11.55,17.19l0 51.52c0,14.44 11.75,26.18 26.18,26.18l15.92 0 0 413.22c-23.02,3.15 -40.84,22.9 -40.84,46.77 0,26.06 21.2,47.26 47.26,47.26l1144.83 0c26.06,0 47.26,-21.2 47.26,-47.26 0,-26.06 -21.2,-47.26 -47.26,-47.26zm-543.34 -962.31l-61.89 41.17 0 -46.04 61.89 0 0 4.87zm-81.54 -56.41l0 0 101.2 0 0 14.39 -1.08 0 -99.03 0 -1.08 0 0 -14.39zm-8.72 509.13l0 -279.28 273 -181.6 272.99 181.6 0 279.86 -545.99 0 0 -0.58zm-258.81 -88.94l196.67 89.51 -393.34 0 196.67 -89.51zm-263.79 148.64l0 -21.99 1107.57 0 0 21.99 -1107.57 0zm750.09 179.06l-144.33 0c-18.33,0 -33.25,14.92 -33.25,33.25l0 237.57 -49.91 0 0 -412.73 545.99 0 0 412.73 -285.25 -0 0 -237.57c0,-18.33 -14.92,-33.25 -33.25,-33.25zm-3.9 37.15l0 233.67 -136.54 0 0 -233.67 136.54 0zm-588.95 9.09l-36.15 0 0 -31.46c0,-4.31 3.51,-7.82 7.83,-7.82l269.74 0c4.32,0 7.82,3.51 7.82,7.82l0 31.46 -133.22 0c-10.26,0 -18.57,8.32 -18.57,18.57 0,10.26 8.32,18.57 18.57,18.57l133.22 -0 0 39.29 -285.39 0 0 -39.29 36.15 -0c10.26,0 18.57,-8.32 18.57,-18.57 0,-10.26 -8.31,-18.57 -18.57,-18.57zm249.25 113.58l0 39.29 -285.4 0 0 -39.29 285.4 0zm0 76.43l0 34.57 -285.4 -0 0 -34.57 285.4 0zm-7.83 -266.45l-269.74 0c-24.8,0 -44.97,20.17 -44.97,44.97l0 256.04 -41.84 0 0 -412.73 443.35 0 0 412.73 -41.82 -0 0 -256.04c0,-24.8 -20.17,-44.97 -44.97,-44.97zm757.55 358.39l-1144.83 0c-5.58,0 -10.11,-4.54 -10.11,-10.11 0,-5.58 4.54,-10.11 10.11,-10.11l1144.83 0c5.58,0 10.12,4.54 10.12,10.11 0,5.58 -4.54,10.11 -10.12,10.11z"/>
  </g>
 </g>
</svg>
