<?xml version="1.0" encoding="UTF-8"?>
<!DOCTYPE svg PUBLIC "-//W3C//DTD SVG 1.1//EN" "http://www.w3.org/Graphics/SVG/1.1/DTD/svg11.dtd">
<!-- Creator: CorelDRAW 2017 -->
<svg xmlns="http://www.w3.org/2000/svg" xml:space="preserve" width="76.1999mm" height="76.1999mm" version="1.1" style="shape-rendering:geometricPrecision; text-rendering:geometricPrecision; image-rendering:optimizeQuality; fill-rule:evenodd; clip-rule:evenodd"
viewBox="0 0 287.46 287.46"
 xmlns:xlink="http://www.w3.org/1999/xlink">
 <defs>
  <style type="text/css">
   <![CDATA[
    .fil0 {fill:#15949D}
   ]]>
  </style>
 </defs>
 <g id="Capa_x0020_1">
  <metadata id="CorelCorpID_0Corel-Layer"/>
  <g id="_1814539363600">
   <path class="fil0" d="M283.24 76.51c-7.6,0 -13.78,-6.18 -13.78,-13.78 0,-2.33 -1.89,-4.22 -4.22,-4.22 -2.33,0 -4.22,1.89 -4.22,4.22 0,7.6 -6.18,13.78 -13.78,13.78 -2.33,0 -4.22,1.89 -4.22,4.22 0,2.33 1.89,4.22 4.22,4.22 7.6,0 13.78,6.18 13.78,13.78 0,2.33 1.89,4.22 4.22,4.22 2.33,0 4.22,-1.89 4.22,-4.22 0,-7.6 6.18,-13.78 13.78,-13.78 2.33,0 4.22,-1.89 4.22,-4.22 0,-2.33 -1.89,-4.22 -4.22,-4.22zm-18 9.21c-1.39,-1.91 -3.07,-3.6 -4.99,-4.99 1.91,-1.39 3.6,-3.07 4.99,-4.99 1.39,1.91 3.07,3.6 4.99,4.99 -1.91,1.39 -3.6,3.07 -4.99,4.99z"/>
   <path class="fil0" d="M40.22 76.51c-7.6,0 -13.78,-6.18 -13.78,-13.78 0,-2.33 -1.89,-4.22 -4.22,-4.22 -2.33,0 -4.22,1.89 -4.22,4.22 0,7.6 -6.18,13.78 -13.78,13.78 -2.33,0 -4.22,1.89 -4.22,4.22 0,2.33 1.89,4.22 4.22,4.22 7.6,0 13.78,6.18 13.78,13.78 0,2.33 1.89,4.22 4.22,4.22 2.33,0 4.22,-1.89 4.22,-4.22 0,-7.6 6.18,-13.78 13.78,-13.78 2.33,0 4.22,-1.89 4.22,-4.22 0,-2.33 -1.89,-4.22 -4.22,-4.22zm-18 9.21c-1.39,-1.91 -3.07,-3.6 -4.99,-4.99 1.91,-1.39 3.6,-3.07 4.99,-4.99 1.39,1.91 3.07,3.6 4.99,4.99 -1.91,1.39 -3.6,3.07 -4.99,4.99z"/>
   <path class="fil0" d="M166.23 22.5c-10.08,0 -18.28,-8.2 -18.28,-18.28 0,-2.33 -1.89,-4.22 -4.22,-4.22 -2.33,0 -4.22,1.89 -4.22,4.22 0,10.08 -8.2,18.28 -18.28,18.28 -2.33,0 -4.22,1.89 -4.22,4.22 0,2.33 1.89,4.22 4.22,4.22 10.08,0 18.28,8.2 18.28,18.28 0,2.33 1.89,4.22 4.22,4.22 2.33,0 4.22,-1.89 4.22,-4.22 0,-10.08 8.2,-18.28 18.28,-18.28 2.33,0 4.22,-1.89 4.22,-4.22 0,-2.33 -1.89,-4.22 -4.22,-4.22zm-22.5 12.32c-2.09,-3.25 -4.86,-6.02 -8.1,-8.1 3.25,-2.09 6.02,-4.86 8.1,-8.1 2.09,3.25 4.86,6.02 8.1,8.1 -3.25,2.09 -6.02,4.86 -8.1,8.1z"/>
   <path class="fil0" d="M231.57 142.33l-16.41 -46.5c-1.23,-3.48 -4.53,-5.82 -8.22,-5.82l-127.54 0c-3.69,0 -6.99,2.34 -8.22,5.82l-16.41 46.5c-0.95,2.7 1.12,5.62 3.98,5.62l168.85 0c1.37,0 2.65,-0.66 3.44,-1.78 0.79,-1.12 0.99,-2.55 0.54,-3.84zm-166.87 -2.82l14.43 -40.88c0.04,-0.11 0.15,-0.19 0.27,-0.19l127.54 0c0.12,0 0.23,0.08 0.27,0.19l14.43 40.88 -156.93 -0z"/>
   <path class="fil0" d="M224.18 198.02c-14.98,0 -26.72,7.78 -26.72,17.72 0,9.94 11.74,17.72 26.72,17.72 14.98,0 26.72,-7.78 26.72,-17.72 0,-9.94 -11.74,-17.72 -26.72,-17.72zm0 27c-10.46,0 -18.28,-4.9 -18.28,-9.28 0,-4.38 7.82,-9.28 18.28,-9.28 10.46,0 18.28,4.9 18.28,9.28 0,4.38 -7.82,9.28 -18.28,9.28z"/>
   <path class="fil0" d="M62.16 198.02c-14.98,0 -26.72,7.78 -26.72,17.72 0,9.94 11.74,17.72 26.72,17.72 14.98,0 26.72,-7.78 26.72,-17.72 0,-9.94 -11.74,-17.72 -26.72,-17.72zm0 27c-10.46,0 -18.28,-4.9 -18.28,-9.28 0,-4.38 7.82,-9.28 18.28,-9.28 10.46,0 18.28,4.9 18.28,9.28 0,4.38 -7.82,9.28 -18.28,9.28z"/>
   <path class="fil0" d="M278.18 135.01l-22.5 0c-1.94,0 -3.62,1.32 -4.09,3.2l-2.96 11.86 -20.73 -58.73c-3.13,-8.87 -11.55,-14.83 -20.95,-14.83l-127.54 0c-9.4,0 -17.82,5.96 -20.95,14.83l-20.73 58.73 -2.96 -11.86c-0.47,-1.88 -2.16,-3.2 -4.09,-3.2l-22.5 0c-2.33,0 -4.22,1.89 -4.22,4.22l0 18c0,2.33 1.89,4.22 4.22,4.22l23.3 0 -14.38 20.14c-2.71,3.79 -4.14,8.26 -4.14,12.92l0 52.74c0,7.31 3.55,13.8 9.01,17.85 -0,0.05 -0.01,0.1 -0.01,0.15l0 13.5c0,4.81 3.91,8.72 8.72,8.72l27 0c4.81,0 8.72,-3.91 8.72,-8.72l0 -9.28 153.58 0 0 9.28c0,4.81 3.91,8.72 8.72,8.72l27 0c4.81,0 8.72,-3.91 8.72,-8.72l0 -13.5c0,-0.05 -0.01,-0.1 -0.01,-0.15 5.46,-4.05 9.01,-10.55 9.01,-17.85l0 -52.74c0,-4.66 -1.43,-9.13 -4.14,-12.92l-14.38 -20.14 23.3 0c2.33,0 4.22,-1.89 4.22,-4.22l0 -18c0,-2.33 -1.89,-4.22 -4.22,-4.22zm-265.8 18l0 -9.56 14.99 0 2.39 9.56 -17.38 0zm45.57 125.73c0,0.16 -0.13,0.28 -0.28,0.28l-27 0c-0.15,0 -0.28,-0.13 -0.28,-0.28l0 -9.28 4.78 0 22.78 0 0 9.28zm198.02 0c0,0.16 -0.13,0.28 -0.28,0.28l-27 0c-0.16,0 -0.28,-0.13 -0.28,-0.28l0 -9.28 22.78 0 4.78 0 0 9.28zm-4.78 -17.72l-216.02 0c-6.13,0 -11.33,-4.02 -13.12,-9.56l242.26 -0c-1.79,5.54 -6.99,9.56 -13.12,9.56zm-71.72 -45.57l0 9.56 -72.57 0 0 -9.56 72.57 0zm-71.91 -8.44c1.79,-5.54 6.99,-9.56 13.12,-9.56l45 -0c6.13,0 11.33,4.02 13.12,9.56l-71.24 0zm71.91 26.44l0 9.56 -72.57 0 0 -9.56 72.57 0zm82.94 -46.96c1.68,2.35 2.57,5.12 2.57,8.01l0 48.52 -77.07 0 0 -31.78c0,-12.25 -9.97,-22.22 -22.22,-22.22l-45 -0c-12.25,0 -22.22,9.97 -22.22,22.22l0 31.78 -77.07 0 0 -48.52c0,-2.89 0.89,-5.66 2.57,-8.01l17.89 -25.04 155.34 0c2.33,0 4.22,-1.89 4.22,-4.22 0,-2.33 -1.89,-4.22 -4.22,-4.22l-151.55 0 20.78 -58.87c1.94,-5.5 7.16,-9.2 13,-9.2l127.54 0c5.83,0 11.05,3.7 13,9.2l20.78 58.87 -25.54 0c-2.33,0 -4.22,1.89 -4.22,4.22 0,2.33 1.89,4.22 4.22,4.22l29.33 0 17.89 25.04zm11.57 -33.48l-17.38 0 2.39 -9.56 14.99 0 0 9.56z"/>
   <path class="fil0" d="M75.66 184.52l-27 0c-2.33,0 -4.22,1.89 -4.22,4.22 0,2.33 1.89,4.22 4.22,4.22l27 -0c2.33,0 4.22,-1.89 4.22,-4.22 0,-2.33 -1.89,-4.22 -4.22,-4.22z"/>
   <path class="fil0" d="M237.68 184.52l-27 0c-2.33,0 -4.22,1.89 -4.22,4.22 0,2.33 1.89,4.22 4.22,4.22l27 -0c2.33,0 4.22,-1.89 4.22,-4.22 0,-2.33 -1.89,-4.22 -4.22,-4.22z"/>
  </g>
 </g>
</svg>
