<?xml version="1.0" encoding="UTF-8"?>
<!DOCTYPE svg PUBLIC "-//W3C//DTD SVG 1.1//EN" "http://www.w3.org/Graphics/SVG/1.1/DTD/svg11.dtd">
<!-- Creator: CorelDRAW 2017 -->
<svg xmlns="http://www.w3.org/2000/svg" xml:space="preserve" width="76.2mm" height="83.7265mm" version="1.1" style="shape-rendering:geometricPrecision; text-rendering:geometricPrecision; image-rendering:optimizeQuality; fill-rule:evenodd; clip-rule:evenodd"
viewBox="0 0 670.05 736.24"
 xmlns:xlink="http://www.w3.org/1999/xlink">
 <defs>
  <style type="text/css">
   <![CDATA[
    .fil0 {fill:#FFCC29}
   ]]>
  </style>
 </defs>
 <g id="Capa_x0020_1">
  <metadata id="CorelCorpID_0Corel-Layer"/>
  <g id="_1814539360496">
   <path class="fil0" d="M657.64 711.42l-20.68 0 0 -649.38c0,-6.86 -5.56,-12.41 -12.41,-12.41l-231.62 0c-6.85,0 -12.41,5.55 -12.41,12.41l0 53.77 -24.82 0 0 -53.77c0,-6.86 -5.56,-12.41 -12.41,-12.41l-53.77 0 0 -37.23c0,-6.86 -5.56,-12.41 -12.41,-12.41 -6.85,0 -12.41,5.55 -12.41,12.41l0 37.23 -53.77 0c-6.85,0 -12.41,5.55 -12.41,12.41l0 53.77 -37.23 0c-6.85,0 -12.41,5.55 -12.41,12.41l0 103.4 -103.4 0c-6.85,0 -12.41,5.55 -12.41,12.41l0 467.39 -20.68 0c-6.85,0 -12.41,5.55 -12.41,12.41 0,6.86 5.56,12.41 12.41,12.41l645.24 0c6.85,0 12.41,-5.55 12.41,-12.41 0,-6.86 -5.56,-12.41 -12.41,-12.41zm-434.29 -636.97l107.54 0 0 41.36 -107.54 0 0 -41.36zm-41.36 636.97l-8.27 0 0 -20.68c0,-6.85 -5.56,-12.41 -12.41,-12.41 -6.85,0 -12.41,5.55 -12.41,12.41l0 20.68 -8.27 0 0 -41.36 41.36 0 0 41.36zm82.72 -318.48l0 21.35 0 297.14 -57.91 -0 0 -53.77c0,-6.85 -5.56,-12.41 -12.41,-12.41l-66.18 0c-6.85,0 -12.41,5.55 -12.41,12.41l0 53.77 -57.91 0 0 -454.98 206.81 0 0 136.49zm12.41 -161.31l-103.4 0 0 -91 206.81 0 0 239.9 -90.99 0 0 -41.36 37.23 0c6.85,0 12.41,-5.55 12.41,-12.41 0,-6.86 -5.56,-12.41 -12.41,-12.41l-37.23 0 0 -41.36 37.23 0c6.85,0 12.41,-5.55 12.41,-12.41 0,-6.85 -5.56,-12.41 -12.41,-12.41l-37.23 0 0 -4.14c0,-6.86 -5.56,-12.41 -12.41,-12.41zm219.21 479.79l-206.81 0 0 -297.14 0 -8.94 206.81 -0 0 306.08zm115.81 0l-90.99 0 0 -318.48 0 -16.55c0,-6.85 -5.56,-12.41 -12.41,-12.41 -6.85,0 -12.41,5.55 -12.41,12.41l0 4.14 -24.82 0 0 -4.14c0,-6.86 -5.56,-12.41 -12.41,-12.41 -6.85,0 -12.41,5.55 -12.41,12.41l0 4.14 -41.36 0 0 -252.3 0 -53.77 206.81 0 0 636.97 -0 0z"/>
   <path class="fil0" d="M343.3 686.6c6.85,0 12.41,-5.56 12.41,-12.41l0 -231.62c0,-6.85 -5.56,-12.41 -12.41,-12.41 -6.85,0 -12.41,5.55 -12.41,12.41l0 231.63c0,6.85 5.55,12.41 12.41,12.41z"/>
   <path class="fil0" d="M392.93 686.6c6.85,0 12.41,-5.56 12.41,-12.41l0 -231.62c0,-6.85 -5.56,-12.41 -12.41,-12.41 -6.85,0 -12.41,5.55 -12.41,12.41l0 231.63c-0,6.85 5.56,12.41 12.41,12.41z"/>
   <path class="fil0" d="M442.56 686.6c6.85,0 12.41,-5.56 12.41,-12.41l0 -231.62c0,-6.85 -5.56,-12.41 -12.41,-12.41 -6.85,0 -12.41,5.55 -12.41,12.41l0 231.63c0,6.85 5.56,12.41 12.41,12.41z"/>
   <path class="fil0" d="M459.11 157.17c6.85,0 12.41,-5.55 12.41,-12.41l0 -16.54c0,-6.85 -5.56,-12.41 -12.41,-12.41 -6.85,0 -12.41,5.55 -12.41,12.41l0 16.55c0,6.85 5.55,12.41 12.41,12.41z"/>
   <path class="fil0" d="M508.74 157.17c6.85,0 12.41,-5.55 12.41,-12.41l0 -16.54c0,-6.85 -5.56,-12.41 -12.41,-12.41 -6.85,0 -12.41,5.55 -12.41,12.41l0 16.55c0,6.85 5.56,12.41 12.41,12.41z"/>
   <path class="fil0" d="M558.38 157.17c6.85,0 12.41,-5.55 12.41,-12.41l0 -16.54c0,-6.85 -5.56,-12.41 -12.41,-12.41 -6.85,0 -12.41,5.55 -12.41,12.41l0 16.55c0,6.85 5.55,12.41 12.41,12.41z"/>
   <path class="fil0" d="M459.11 239.9c6.85,0 12.41,-5.55 12.41,-12.41l0 -16.55c0,-6.85 -5.56,-12.41 -12.41,-12.41 -6.85,0 -12.41,5.55 -12.41,12.41l0 16.55c0,6.85 5.55,12.41 12.41,12.41z"/>
   <path class="fil0" d="M508.74 239.9c6.85,0 12.41,-5.55 12.41,-12.41l0 -16.55c0,-6.85 -5.56,-12.41 -12.41,-12.41 -6.85,0 -12.41,5.55 -12.41,12.41l0 16.55c0,6.85 5.56,12.41 12.41,12.41z"/>
   <path class="fil0" d="M558.38 239.9c6.85,0 12.41,-5.55 12.41,-12.41l0 -16.55c0,-6.85 -5.56,-12.41 -12.41,-12.41 -6.85,0 -12.41,5.55 -12.41,12.41l0 16.55c0,6.85 5.55,12.41 12.41,12.41z"/>
   <path class="fil0" d="M459.11 322.62c6.85,0 12.41,-5.55 12.41,-12.41l0 -16.55c0,-6.85 -5.56,-12.41 -12.41,-12.41 -6.85,0 -12.41,5.55 -12.41,12.41l0 16.55c0,6.85 5.55,12.41 12.41,12.41z"/>
   <path class="fil0" d="M508.74 322.62c6.85,0 12.41,-5.55 12.41,-12.41l0 -16.55c0,-6.85 -5.56,-12.41 -12.41,-12.41 -6.85,0 -12.41,5.55 -12.41,12.41l0 16.55c0,6.85 5.56,12.41 12.41,12.41z"/>
   <path class="fil0" d="M558.38 322.62c6.85,0 12.41,-5.55 12.41,-12.41l0 -16.55c0,-6.85 -5.56,-12.41 -12.41,-12.41 -6.85,0 -12.41,5.55 -12.41,12.41l0 16.55c0,6.85 5.55,12.41 12.41,12.41z"/>
   <path class="fil0" d="M111.68 355.71c6.85,0 12.41,-5.55 12.41,-12.41l0 -16.55c0,-6.86 -5.56,-12.41 -12.41,-12.41 -6.85,0 -12.41,5.55 -12.41,12.41l0 16.55c0,6.85 5.56,12.41 12.41,12.41z"/>
   <path class="fil0" d="M161.31 355.71c6.85,0 12.41,-5.55 12.41,-12.41l0 -16.55c0,-6.86 -5.56,-12.41 -12.41,-12.41 -6.85,0 -12.41,5.55 -12.41,12.41l0 16.55c0,6.85 5.55,12.41 12.41,12.41z"/>
   <path class="fil0" d="M210.94 355.71c6.85,0 12.41,-5.55 12.41,-12.41l0 -16.55c0,-6.86 -5.56,-12.41 -12.41,-12.41 -6.85,0 -12.41,5.55 -12.41,12.41l0 16.55c0,6.85 5.55,12.41 12.41,12.41z"/>
   <path class="fil0" d="M111.68 438.43c6.85,0 12.41,-5.55 12.41,-12.41l0 -16.55c0,-6.85 -5.56,-12.41 -12.41,-12.41 -6.85,0 -12.41,5.55 -12.41,12.41l0 16.55c0,6.85 5.56,12.41 12.41,12.41z"/>
   <path class="fil0" d="M161.31 438.43c6.85,0 12.41,-5.55 12.41,-12.41l0 -16.55c0,-6.85 -5.56,-12.41 -12.41,-12.41 -6.85,0 -12.41,5.55 -12.41,12.41l0 16.55c0,6.85 5.55,12.41 12.41,12.41z"/>
   <path class="fil0" d="M210.94 438.43c6.85,0 12.41,-5.55 12.41,-12.41l0 -16.55c0,-6.85 -5.56,-12.41 -12.41,-12.41 -6.85,0 -12.41,5.55 -12.41,12.41l0 16.55c0,6.85 5.55,12.41 12.41,12.41z"/>
   <path class="fil0" d="M111.68 521.15c6.85,0 12.41,-5.55 12.41,-12.41l0 -16.54c0,-6.86 -5.56,-12.41 -12.41,-12.41 -6.85,0 -12.41,5.55 -12.41,12.41l0 16.54c0,6.86 5.56,12.41 12.41,12.41z"/>
   <path class="fil0" d="M161.31 521.15c6.85,0 12.41,-5.55 12.41,-12.41l0 -16.54c0,-6.86 -5.56,-12.41 -12.41,-12.41 -6.85,0 -12.41,5.55 -12.41,12.41l0 16.54c0,6.86 5.55,12.41 12.41,12.41z"/>
   <path class="fil0" d="M210.94 521.15c6.85,0 12.41,-5.55 12.41,-12.41l0 -16.54c0,-6.86 -5.56,-12.41 -12.41,-12.41 -6.85,0 -12.41,5.55 -12.41,12.41l0 16.54c0,6.86 5.55,12.41 12.41,12.41z"/>
   <path class="fil0" d="M111.68 603.88c6.85,0 12.41,-5.55 12.41,-12.41l0 -16.54c0,-6.86 -5.56,-12.41 -12.41,-12.41 -6.85,0 -12.41,5.55 -12.41,12.41l0 16.55c0,6.85 5.56,12.41 12.41,12.41z"/>
   <path class="fil0" d="M161.31 603.88c6.85,0 12.41,-5.55 12.41,-12.41l0 -16.54c0,-6.86 -5.56,-12.41 -12.41,-12.41 -6.85,0 -12.41,5.55 -12.41,12.41l0 16.55c0,6.85 5.55,12.41 12.41,12.41z"/>
   <path class="fil0" d="M210.94 603.88c6.85,0 12.41,-5.55 12.41,-12.41l0 -16.54c0,-6.86 -5.56,-12.41 -12.41,-12.41 -6.85,0 -12.41,5.55 -12.41,12.41l0 16.55c0,6.85 5.55,12.41 12.41,12.41z"/>
   <path class="fil0" d="M558.38 405.34c6.85,0 12.41,-5.55 12.41,-12.41l0 -16.54c0,-6.86 -5.56,-12.41 -12.41,-12.41 -6.85,0 -12.41,5.55 -12.41,12.41l0 16.54c0,6.85 5.55,12.41 12.41,12.41z"/>
   <path class="fil0" d="M558.38 488.07c6.85,0 12.41,-5.55 12.41,-12.41l0 -16.54c0,-6.86 -5.56,-12.41 -12.41,-12.41 -6.85,0 -12.41,5.55 -12.41,12.41l0 16.54c0,6.85 5.55,12.41 12.41,12.41z"/>
   <path class="fil0" d="M558.38 570.79c6.85,0 12.41,-5.55 12.41,-12.41l0 -16.55c0,-6.85 -5.56,-12.41 -12.41,-12.41 -6.85,0 -12.41,5.55 -12.41,12.41l0 16.55c0,6.85 5.55,12.41 12.41,12.41z"/>
   <path class="fil0" d="M558.38 653.51c6.85,0 12.41,-5.55 12.41,-12.41l0 -16.55c0,-6.85 -5.56,-12.41 -12.41,-12.41 -6.85,0 -12.41,5.55 -12.41,12.41l0 16.55c0,6.85 5.55,12.41 12.41,12.41z"/>
   <path class="fil0" d="M339.16 194.4c0,-6.86 -5.56,-12.41 -12.41,-12.41l-99.27 0c-6.85,0 -12.41,5.55 -12.41,12.41 0,6.85 5.56,12.41 12.41,12.41l99.27 0c6.85,0 12.41,-5.55 12.41,-12.41z"/>
  </g>
 </g>
</svg>
