<?xml version="1.0" encoding="UTF-8"?>
<!DOCTYPE svg PUBLIC "-//W3C//DTD SVG 1.1//EN" "http://www.w3.org/Graphics/SVG/1.1/DTD/svg11.dtd">
<!-- Creator: CorelDRAW 2017 -->
<svg xmlns="http://www.w3.org/2000/svg" xml:space="preserve" width="76.2mm" height="76.2001mm" version="1.1" style="shape-rendering:geometricPrecision; text-rendering:geometricPrecision; image-rendering:optimizeQuality; fill-rule:evenodd; clip-rule:evenodd"
viewBox="0 0 14072.19 14072.21"
 xmlns:xlink="http://www.w3.org/1999/xlink">
 <defs>
  <style type="text/css">
   <![CDATA[
    .fil0 {fill:#1E7145}
   ]]>
  </style>
 </defs>
 <g id="Capa_x0020_1">
  <metadata id="CorelCorpID_0Corel-Layer"/>
  <g id="_1814573687632">
   <path class="fil0" d="M1507.74 2692.41c220.22,0 1252.06,-202.79 1574.48,-256.35 519.08,-86.22 1070.54,-190.88 1589.62,-277.09l3154.02 -543.53 0 10661.85 -3149.81 -547.73c-492.71,-96.44 -1066.77,-185.87 -1563.14,-267.69 -329.09,-54.24 -1358.85,-261.54 -1605.17,-261.54l0 -8507.93zm6641.21 143.58c678.81,0 4063.69,-54.42 4451.41,35.9 18.76,80.52 35.9,82.53 35.9,179.49l0 7789.97c0,96.95 -17.14,98.99 -35.9,179.49 -112.28,9.34 -127.52,35.9 -251.29,35.9l-4200.12 0 0 -717.96 1615.44 0 0 -1112.87 -1615.44 0 0 -323.09 1615.44 0 0 -1148.75 -1615.44 0 0 -287.19 1615.44 0 0 -1148.75 -1615.44 0 0 -323.09 1615.44 0 0 -1112.85 -1615.44 0 0 -323.09 1615.44 0 0 -1112.85 -1615.44 0 0 -610.28zm-8148.94 11236.22l14072.19 0 0 -14072.21 -14072.19 0 0 14072.21z"/>
   <path class="fil0" d="M5241.17 4954c-10.3,123.82 -289.09,715.67 -374.15,918.2 -56.51,134.54 -115.85,187.17 -128.42,338.25l-71.8 0c-73.93,-317.33 -375.89,-956.32 -394.89,-1184.65 -297.09,0 -449.9,35.9 -753.86,35.9l348.67 907.77c468.85,1171.43 481.7,630.15 -241.44,2250.81 -66.69,149.46 -162.51,268.74 -179.02,467.17 294.44,0 452.18,35.88 717.98,35.88 29.25,-125.58 469.7,-1136.01 574.37,-1256.45 14.48,174 278.3,759.86 369.68,994.45 51.99,133.5 72.54,219.73 132.89,333.8 283.49,0 502.02,35.9 825.66,35.9 -29.71,-127.59 -141.92,-329.46 -205.03,-477.05 -41.16,-96.31 -79.96,-157.12 -117.58,-241.41l-538.95 -1220.05c0,-108.15 338.82,-841.17 404.84,-995.21 77.9,-181.79 138.34,-322.77 215.39,-502.59 66.19,-154.42 170.31,-361.72 205.43,-512.53 -140.02,32.63 -624.03,71.8 -789.76,71.8z"/>
   <path class="fil0" d="M10087.47 7466.89l1759.02 0c82.72,0 107.68,-24.97 107.68,-107.68l0 -933.36c0,-82.72 -24.97,-107.7 -107.68,-107.7l-1759.02 0 0 1148.75z"/>
   <path class="fil0" d="M10087.47 8902.82l1759.02 0c82.72,0 107.68,-24.97 107.68,-107.68l0 -933.36c0,-82.72 -24.97,-107.7 -107.68,-107.7l-1759.02 0 0 1148.75z"/>
   <polygon class="fil0" points="10087.47,4559.11 11954.18,4559.11 11954.18,3446.27 10087.47,3446.27 "/>
   <polygon class="fil0" points="10087.47,10338.78 11954.18,10338.78 11954.18,9225.91 10087.47,9225.91 "/>
   <path class="fil0" d="M10087.47 5995.05l1866.71 0 0 -1005.15c0,-82.72 -24.97,-107.7 -107.68,-107.7l-1759.02 0 0 1112.85z"/>
  </g>
 </g>
</svg>
