<?xml version="1.0" encoding="UTF-8"?>
<!DOCTYPE svg PUBLIC "-//W3C//DTD SVG 1.1//EN" "http://www.w3.org/Graphics/SVG/1.1/DTD/svg11.dtd">
<!-- Creator: CorelDRAW 2017 -->
<svg xmlns="http://www.w3.org/2000/svg" xml:space="preserve" width="63.103mm" height="76.2mm" version="1.1" style="shape-rendering:geometricPrecision; text-rendering:geometricPrecision; image-rendering:optimizeQuality; fill-rule:evenodd; clip-rule:evenodd"
viewBox="0 0 298.76 360.77"
 xmlns:xlink="http://www.w3.org/1999/xlink">
 <defs>
  <style type="text/css">
   <![CDATA[
    .fil0 {fill:#5D6A6B}
   ]]>
  </style>
 </defs>
 <g id="Capa_x0020_1">
  <metadata id="CorelCorpID_0Corel-Layer"/>
  <g id="_1814345553904">
   <path class="fil0" d="M149.38 116.27c-35.36,0 -64.12,28.76 -64.12,64.12 0,12.45 3.57,24.08 9.73,33.92 0.19,0.36 0.41,0.71 0.67,1.05 11.45,17.54 31.25,29.15 53.72,29.15 35.36,0 64.12,-28.76 64.12,-64.12 0,-35.35 -28.76,-64.12 -64.12,-64.12zm-46.3 83.03c-2.39,-5.84 -3.72,-12.22 -3.72,-18.91 0,-27.58 22.44,-50.03 50.03,-50.03 16.88,0 31.82,8.41 40.89,21.25l-38.7 38.7 -14.77 -14.77c-2.75,-2.75 -7.21,-2.75 -9.97,0l-23.75 23.75zm46.3 31.11c-15.69,0 -29.71,-7.26 -38.89,-18.6l21.32 -21.32 14.77 14.77c2.75,2.75 7.21,2.75 9.97,0l40.38 -40.38c1.6,4.89 2.47,10.1 2.47,15.51 -0,27.58 -22.44,50.03 -50.03,50.03z"/>
   <path class="fil0" d="M257.79 175.53c-1.11,-34.43 -10.74,-68.2 -28.04,-98.06 -18.41,-31.79 -44.99,-58.25 -76.86,-76.53 -2.17,-1.25 -4.84,-1.25 -7.01,0 -31.87,18.28 -58.45,44.74 -76.86,76.53 -17.3,29.86 -26.93,63.63 -28.04,98.06 -24.7,10.6 -40.98,34.99 -40.98,62.19l0 49.78c0,3.89 3.16,7.05 7.05,7.05l103.54 0c1.52,21.19 10.8,41.5 25.99,56.46l7.86 7.75c1.37,1.35 3.16,2.03 4.95,2.03 1.79,0 3.57,-0.68 4.95,-2.03l7.86 -7.75c15.19,-14.97 24.47,-35.27 25.99,-56.46l21.8 0 0 36.37c0,3.89 3.16,7.05 7.05,7.05 3.89,0 7.05,-3.15 7.05,-7.05l0 -36.37 67.65 0c3.89,0 7.05,-3.16 7.05,-7.05l0 -49.78c0,-27.19 -16.28,-51.58 -40.98,-62.18zm-108.4 -160.31c22.16,13.33 41.09,30.77 56.07,51.02l-112.14 0c14.98,-20.24 33.92,-37.69 56.07,-51.02zm-135.29 265.23l0 -42.74c0,-19.37 10.44,-36.95 26.78,-46.4l0 82.08c0,2.47 0.43,4.84 1.21,7.05l-27.99 0zm138.21 60.52l-2.92 2.87 -2.92 -2.87c-12.52,-12.34 -20.26,-28.99 -21.74,-46.42l49.32 0c-1.49,17.44 -9.22,34.09 -21.74,46.42zm91.5 -67.56c0,3.89 -3.16,7.05 -7.05,7.05l-174.75 0c-3.89,0 -7.05,-3.16 -7.05,-7.05l0 -91.19c0,-25.52 5.04,-50.38 14.39,-73.34l31.91 0c3.89,0 7.05,-3.15 7.05,-7.05 0,-3.89 -3.16,-7.05 -7.05,-7.05l-25.5 0c2.48,-4.93 5.16,-9.75 8.04,-14.44l131.16 0c18.52,30.2 28.84,65.37 28.84,101.88l0 91.19zm40.87 7.05l-27.99 0c0.78,-2.21 1.21,-4.58 1.21,-7.05l0 -82.08c16.34,9.44 26.78,27.02 26.78,46.4l0 42.73z"/>
   <path class="fil0" d="M131.82 96.84c-1.31,-1.31 -3.13,-2.06 -4.98,-2.06 -1.85,0 -3.67,0.75 -4.98,2.06 -1.31,1.31 -2.06,3.13 -2.06,4.98 0,1.85 0.75,3.67 2.06,4.98 1.31,1.31 3.13,2.06 4.98,2.06 1.85,0 3.67,-0.75 4.98,-2.06 1.31,-1.31 2.07,-3.13 2.07,-4.98 0,-1.85 -0.75,-3.67 -2.07,-4.98z"/>
   <path class="fil0" d="M81.74 313.39c-3.89,0 -7.05,3.15 -7.05,7.05l0 21.71c0,3.89 3.16,7.05 7.05,7.05 3.89,0 7.05,-3.15 7.05,-7.05l0 -21.71c0,-3.89 -3.16,-7.05 -7.05,-7.05z"/>
   <path class="fil0" d="M222.01 348.75c-1.31,-1.31 -3.13,-2.06 -4.98,-2.06 -1.85,0 -3.67,0.75 -4.98,2.06 -1.31,1.31 -2.06,3.13 -2.06,4.98 0,1.85 0.75,3.67 2.06,4.98 1.31,1.31 3.13,2.06 4.98,2.06 1.85,0 3.67,-0.75 4.98,-2.06 1.31,-1.31 2.07,-3.13 2.07,-4.98 0,-1.85 -0.75,-3.67 -2.07,-4.98z"/>
  </g>
 </g>
</svg>
