<?xml version="1.0" encoding="UTF-8"?>
<!DOCTYPE svg PUBLIC "-//W3C//DTD SVG 1.1//EN" "http://www.w3.org/Graphics/SVG/1.1/DTD/svg11.dtd">
<!-- Creator: CorelDRAW 2017 -->
<svg xmlns="http://www.w3.org/2000/svg" xml:space="preserve" width="76.1999mm" height="76.1999mm" version="1.1" style="shape-rendering:geometricPrecision; text-rendering:geometricPrecision; image-rendering:optimizeQuality; fill-rule:evenodd; clip-rule:evenodd"
viewBox="0 0 440.14 440.14"
 xmlns:xlink="http://www.w3.org/1999/xlink">
 <defs>
  <style type="text/css">
   <![CDATA[
    .fil0 {fill:#5D6A6B}
   ]]>
  </style>
 </defs>
 <g id="Capa_x0020_1">
  <metadata id="CorelCorpID_0Corel-Layer"/>
  <g id="_1814288545328">
   <path class="fil0" d="M145.79 129.59c-29.18,7.71 -48.04,32.11 -48.04,62.16 0,84.61 87.78,134.33 114.67,147.54 4.94,2.44 10.85,2.44 15.8,-0.01 26.9,-13.27 114.69,-63.14 114.69,-147.54 0,-30.02 -18.85,-54.42 -48.02,-62.15 -28.96,-7.68 -57.29,4.04 -72.4,29.87 -0.58,0.57 -1.44,1.21 -2.26,1.19 -0.67,-0.02 -1.43,-0.46 -2.14,-1.23 -14.95,-25.8 -43.25,-37.51 -72.3,-29.84l-0 0zm61.96 37.6c3.21,3.99 7.53,6.25 12.16,6.37 4.64,0.11 9.12,-1.99 12.62,-5.93 0.3,-0.34 0.56,-0.7 0.78,-1.09 14.6,-25.59 40.51,-29.17 58.27,-24.46 17.72,4.7 38.42,20.53 38.42,49.67 0,76.95 -82.27,123.52 -107.5,135.96 -1.36,0.67 -2.99,0.67 -4.37,0 -25.21,-12.39 -107.47,-58.81 -107.47,-135.96 0,-29.17 20.7,-44.99 38.43,-49.67 4.23,-1.12 8.92,-1.77 13.81,-1.77 15.64,0 33.28,6.67 44.28,26.03 0.17,0.3 0.36,0.59 0.58,0.86zm0 0z"/>
   <path class="fil0" d="M234.94 12.9c50.03,3.48 96.99,24.81 132.24,60.06 35.25,35.25 56.58,82.21 60.06,132.24 0.24,3.4 3.07,6 6.43,6 0.15,0 0.31,-0 0.46,-0.01 3.56,-0.25 6.24,-3.33 5.99,-6.89 -7.65,-109.91 -94.55,-196.65 -204.29,-204.28 -3.55,-0.25 -6.64,2.43 -6.89,5.99 -0.25,3.56 2.43,6.64 5.99,6.89l0 0zm0 0z"/>
   <path class="fil0" d="M32.37 341.85l-23.56 76.98c-2.34,7.66 4.84,14.84 12.5,12.5l76.98 -23.56c2.76,-0.85 5.81,-0.46 8.35,1.06 34.19,20.5 73.87,31.31 113.92,31.3 115.92,-0.01 211.51,-89.1 219.57,-204.81 0.24,-3.56 -2.44,-6.64 -5.99,-6.89 -3.57,-0.25 -6.64,2.44 -6.89,5.99 -10.71,153.95 -180.4,243.43 -313.97,163.33 -5.67,-3.4 -12.51,-4.25 -18.76,-2.34l-71.75 21.96 21.96 -71.75c1.91,-6.26 1.06,-13.09 -2.34,-18.76 -80.04,-133.49 9.27,-303.25 163.34,-313.97 3.56,-0.24 6.24,-3.33 5.99,-6.89 -0.24,-3.56 -3.33,-6.23 -6.89,-5.99 -105.56,7.34 -191.14,88.21 -203.36,194.2 -5.58,48.41 5.02,97.88 29.85,139.29 1.52,2.54 1.91,5.58 1.06,8.34l0 0zm0 0z"/>
  </g>
 </g>
</svg>
