<?xml version="1.0" encoding="UTF-8"?>
<!DOCTYPE svg PUBLIC "-//W3C//DTD SVG 1.1//EN" "http://www.w3.org/Graphics/SVG/1.1/DTD/svg11.dtd">
<!-- Creator: CorelDRAW 2017 -->
<svg xmlns="http://www.w3.org/2000/svg" xml:space="preserve" width="76.2001mm" height="76.2001mm" version="1.1" style="shape-rendering:geometricPrecision; text-rendering:geometricPrecision; image-rendering:optimizeQuality; fill-rule:evenodd; clip-rule:evenodd"
viewBox="0 0 540.15 540.15"
 xmlns:xlink="http://www.w3.org/1999/xlink">
 <defs>
  <style type="text/css">
   <![CDATA[
    .fil0 {fill:#8B4F8B}
   ]]>
  </style>
 </defs>
 <g id="Capa_x0020_1">
  <metadata id="CorelCorpID_0Corel-Layer"/>
  <g id="_1814176631104">
   <path class="fil0" d="M224.97 162.38l-126.3 0c-4.67,0 -8.46,3.79 -8.46,8.46l0 99.23c0,4.67 3.79,8.46 8.46,8.46l126.3 0c4.67,0 8.46,-3.79 8.46,-8.46l0 -99.24c0,-4.67 -3.79,-8.46 -8.46,-8.46zm-71.61 99.23l-46.23 0 0 -32.7 46.23 0 0 32.7zm0 -49.62l-46.23 0 0 -32.7 46.23 0 0 32.7zm63.15 49.62l-46.23 0 0 -32.7 46.23 0 0 32.7zm0 -49.62l-46.23 0 0 -32.7 46.23 0 0 32.7z"/>
   <path class="fil0" d="M531.69 212l-18.61 0 0 -32.7 18.61 0c4.67,0 8.46,-3.79 8.46,-8.46 0,-4.67 -3.79,-8.46 -8.46,-8.46l-18.61 0 0 -18.61c0,-4.67 -3.79,-8.46 -8.46,-8.46 -4.67,0 -8.46,3.79 -8.46,8.46l0 18.61 -109.38 0 0 -18.61c0,-4.67 -3.79,-8.46 -8.46,-8.46 -4.67,0 -8.46,3.79 -8.46,8.46l0 18.61 -46.23 0 0 -0.56c0,-2.24 -0.89,-4.39 -2.48,-5.98l-153.36 -153.36c-3.3,-3.3 -8.66,-3.3 -11.96,0l-48.71 48.71 0 -42.73c0,-4.67 -3.79,-8.46 -8.46,-8.46l-63.15 0c-4.67,0 -8.46,3.79 -8.46,8.46l0 122.8 -24.59 24.59c-1.59,1.59 -2.48,3.74 -2.48,5.98l0 243.58c0,4.67 3.79,8.46 8.46,8.46 4.67,0 8.46,-3.79 8.46,-8.46l0 -240.07 144.9 -144.9 144.9 144.9 0 357.91 -73.3 0 0 -208.05c0,-4.67 -3.79,-8.46 -8.46,-8.46l-126.3 0c-4.67,0 -8.46,3.79 -8.46,8.46l0 208.05 -73.3 0 0 -72.73c0,-4.67 -3.79,-8.46 -8.46,-8.46 -4.67,0 -8.46,3.79 -8.46,8.46l0 81.19c0,4.67 3.79,8.46 8.46,8.46l306.72 0c4.67,0 8.46,-3.79 8.46,-8.46l0 -352.39 46.23 0 0 32.7 -18.61 0c-4.67,0 -8.46,3.79 -8.46,8.46l0 243.58c0,4.67 3.79,8.46 8.46,8.46l108.26 0c4.67,0 8.46,-3.79 8.46,-8.46 0,-4.67 -3.79,-8.46 -8.46,-8.46l-99.8 0 0 -226.66 163.51 0 0 226.66 -18.61 0c-4.67,0 -8.46,3.79 -8.46,8.46 0,4.67 3.79,8.46 8.46,8.46l27.06 0c4.67,0 8.46,-3.79 8.46,-8.46l-0 -243.58c-0,-4.67 -3.79,-8.46 -8.46,-8.46zm-487.71 -97.66l0 -25.28c0.19,0.01 0.37,0.03 0.56,0.03l24.69 0 -25.25 25.25zm46.23 -46.23l-4.07 4.07 -41.6 0c-0.19,0 -0.38,0.02 -0.56,0.03l0 -19.2 46.23 0 0 15.1 -0 0zm0 -32.02l-46.23 0 0 -19.17 46.23 0 0 19.17 -0 0zm126.3 487.15l-109.38 0 0 -199.6 109.38 0 0 199.6zm279.66 -311.24l-109.38 0 0 -32.7 109.38 0 0 32.7z"/>
   <path class="fil0" d="M469.67 333.79l-19.73 0 0 -55.26 36.65 0c4.67,0 8.46,-3.79 8.46,-8.46 0,-4.67 -3.79,-8.46 -8.46,-8.46l-36.65 0 0 -9.59c0,-4.67 -3.79,-8.46 -8.46,-8.46 -4.67,0 -8.46,3.79 -8.46,8.46l0 9.59 -19.73 0c-13.99,0 -25.37,11.38 -25.37,25.37l0 38.34c0,13.99 11.38,25.37 25.37,25.37l19.73 0 0 55.26 -36.65 0c-4.67,0 -8.46,3.79 -8.46,8.46 0,4.67 3.79,8.46 8.46,8.46l36.65 0 0 9.59c0,4.67 3.79,8.46 8.46,8.46 4.67,0 8.46,-3.79 8.46,-8.46l0 -9.59 19.73 0c13.99,0 25.37,-11.38 25.37,-25.37l0 -38.34c-0,-13.99 -11.38,-25.37 -25.37,-25.37zm-36.65 0l-19.73 0c-4.66,0 -8.46,-3.79 -8.46,-8.46l0 -38.34c0,-4.66 3.79,-8.46 8.46,-8.46l19.73 0 0 55.26 -0 0zm45.11 63.71c0,4.66 -3.79,8.46 -8.46,8.46l-19.73 0 0 -55.26 19.73 0c4.66,0 8.46,3.79 8.46,8.46l0 38.34z"/>
  </g>
 </g>
</svg>
