<?xml version="1.0" encoding="UTF-8"?>
<!DOCTYPE svg PUBLIC "-//W3C//DTD SVG 1.1//EN" "http://www.w3.org/Graphics/SVG/1.1/DTD/svg11.dtd">
<!-- Creator: CorelDRAW 2017 -->
<svg xmlns="http://www.w3.org/2000/svg" xml:space="preserve" width="76.1991mm" height="76.1476mm" version="1.1" style="shape-rendering:geometricPrecision; text-rendering:geometricPrecision; image-rendering:optimizeQuality; fill-rule:evenodd; clip-rule:evenodd"
viewBox="0 0 1922.74 1921.44"
 xmlns:xlink="http://www.w3.org/1999/xlink">
 <defs>
  <style type="text/css">
   <![CDATA[
    .fil0 {fill:#5D6A6B}
   ]]>
  </style>
 </defs>
 <g id="Capa_x0020_1">
  <metadata id="CorelCorpID_0Corel-Layer"/>
  <path class="fil0" d="M462.92 1271c24.59,40.17 12.83,125.01 12.83,173.05 66.94,0 139.05,-10.41 174.49,15.37 -1.03,141.73 2.29,207.06 -131.96,230.74 -187.4,33.06 -202.24,48.08 -270.42,-16.75 -69.26,-65.86 -49.82,-85.97 -15.79,-271.97 10.62,-58.02 28.6,-86.91 62.41,-111.74 41.82,-30.71 104.4,-19.72 168.44,-18.71zm321.68 53.97c-228.44,0 -186.71,40.6 -186.71,-188.13l-141.31 -3.48 630.09 -631.38c38.02,23.33 308.72,288.26 331.68,345.8 -134.9,94.01 -531.32,570.48 -633.18,616.49l-0.57 -139.29zm437.42 -969.52c64.51,-44.62 133.04,-146.16 197.22,-178.02 88.84,-44.09 166.62,77.74 213.14,124.95 49.06,49.79 165.26,121.62 100.59,215.46 -29.26,42.45 -146.62,156.94 -185.41,177.43 -55.48,-45.66 -302.9,-284.7 -325.55,-339.83zm687.65 178.95c52.93,-158.57 -68.02,-261.32 -130.83,-325 -59.31,-60.12 -160.82,-190.89 -274.4,-206.54 -164.18,-22.61 -241.8,94.04 -311.79,163.21l-969.32 958.49c-134.24,132.51 -123.99,76.16 -163.99,316.26 -90.35,542.52 -135.39,514.45 306.61,440.82 233.38,-38.88 268.53,-16.74 364.34,-116.2 81.68,-84.8 156.45,-158.73 239.46,-242.53 163.17,-164.71 315.83,-320.15 478.98,-484.92 91.76,-92.67 427.33,-402.9 460.94,-503.6z"/>
 </g>
</svg>
