<?xml version="1.0" encoding="UTF-8"?>
<!DOCTYPE svg PUBLIC "-//W3C//DTD SVG 1.1//EN" "http://www.w3.org/Graphics/SVG/1.1/DTD/svg11.dtd">
<!-- Creator: CorelDRAW 2017 -->
<svg xmlns="http://www.w3.org/2000/svg" xml:space="preserve" width="76.2mm" height="64.9566mm" version="1.1" style="shape-rendering:geometricPrecision; text-rendering:geometricPrecision; image-rendering:optimizeQuality; fill-rule:evenodd; clip-rule:evenodd"
viewBox="0 0 338.77 288.79"
 xmlns:xlink="http://www.w3.org/1999/xlink">
 <defs>
  <style type="text/css">
   <![CDATA[
    .fil0 {fill:#15949D}
   ]]>
  </style>
 </defs>
 <g id="Capa_x0020_1">
  <metadata id="CorelCorpID_0Corel-Layer"/>
  <path class="fil0" d="M332.45 36.66c3.49,0 6.32,-2.83 6.32,-6.32l0 -24.02c0,-3.49 -2.83,-6.32 -6.32,-6.32l-326.13 0c-3.49,0 -6.32,2.83 -6.32,6.32l0 178.23 0 97.91c0,3.49 2.83,6.32 6.32,6.32l326.13 0c3.49,0 6.32,-2.83 6.32,-6.32l0 -97.91 0 -130.2c0,-3.49 -2.83,-6.32 -6.32,-6.32 -3.49,0 -6.32,2.83 -6.32,6.32l0 123.88 -110.61 0 0 -12.64 61.3 0c3.49,0 6.32,-2.83 6.32,-6.32 0,-13.24 10.77,-24.02 24.02,-24.02 3.49,0 6.32,-2.83 6.32,-6.32l0 -66.99c0,-3.49 -2.83,-6.32 -6.32,-6.32 -13.24,0 -24.02,-10.77 -24.02,-24.02 0,-3.49 -2.83,-6.32 -6.32,-6.32l-61.3 0 0 -12.64 110.61 0 0 17.7c0,3.49 2.83,6.32 6.32,6.32zm-319.81 -24.02l110.61 0 0 12.64 -61.3 0c-3.49,0 -6.32,2.83 -6.32,6.32 0,13.24 -10.77,24.02 -24.02,24.02 -3.49,0 -6.32,2.83 -6.32,6.32l0 66.99c0,3.49 2.83,6.32 6.32,6.32 13.24,0 24.02,10.77 24.02,24.02 0,3.49 2.83,6.32 6.32,6.32l61.3 -0 0 12.64 -110.6 0 0 -165.59zm110.61 263.5l-110.61 0 0 -11.83 110.61 0 0 11.83 0 0zm0 -48.96l-65.1 0c-3.49,0 -6.32,2.83 -6.32,6.32 0,3.49 2.83,6.32 6.32,6.32l65.1 0 0 11.84 -110.61 -0 0 -11.84 24.44 0c3.49,0 6.32,-2.83 6.32,-6.32 0,-3.49 -2.83,-6.32 -6.32,-6.32l-24.44 0 0 -11.83 110.61 0 0 11.83 0 0zm0 -24.47l-110.61 0 0 -11.84 110.61 0 0 11.84 0 0zm79.64 73.43l-66.99 0 0 -85.27 66.99 0 0 85.27zm0 -97.91l-66.99 0 0 -46.43c0,-3.49 -2.83,-6.32 -6.32,-6.32 -3.49,0 -6.32,2.83 -6.32,6.32l0 21.15 -55.53 0c-2.65,-15.16 -14.64,-27.15 -29.79,-29.79l0 -55.44c15.16,-2.65 27.15,-14.64 29.79,-29.79l55.53 0 0 72.81c0,3.49 2.83,6.32 6.32,6.32 3.49,0 6.32,-2.83 6.32,-6.32l-0 -98.09 66.99 0 0 165.59zm123.25 73.44l-96.07 0c-3.49,0 -6.32,2.83 -6.32,6.32 0,3.49 2.83,6.32 6.32,6.32l96.07 -0 0 11.83 -110.61 0 0 -36.32 110.61 0 0 11.84zm0 -24.48l-110.61 0 0 -11.83 110.61 0 0 11.83zm0 -36.31l0 11.84 -110.61 0 0 -11.84 110.61 0zm-55.08 -152.95c2.65,15.16 14.64,27.15 29.79,29.79l0 55.44c-15.16,2.65 -27.15,14.64 -29.79,29.79l-55.53 0 0 -115.03 55.53 0z"/>
 </g>
</svg>
