<?xml version="1.0" encoding="UTF-8"?>
<!DOCTYPE svg PUBLIC "-//W3C//DTD SVG 1.1//EN" "http://www.w3.org/Graphics/SVG/1.1/DTD/svg11.dtd">
<!-- Creator: CorelDRAW 2017 -->
<svg xmlns="http://www.w3.org/2000/svg" xml:space="preserve" width="76.2mm" height="80.5616mm" version="1.1" style="shape-rendering:geometricPrecision; text-rendering:geometricPrecision; image-rendering:optimizeQuality; fill-rule:evenodd; clip-rule:evenodd"
viewBox="0 0 439.98 465.16"
 xmlns:xlink="http://www.w3.org/1999/xlink">
 <defs>
  <style type="text/css">
   <![CDATA[
    .fil0 {fill:#5D6A6B}
   ]]>
  </style>
 </defs>
 <g id="Capa_x0020_1">
  <metadata id="CorelCorpID_0Corel-Layer"/>
  <g id="_1814290400368">
   <path class="fil0" d="M421.35 427.91l-4.03 0c-1.78,-17.06 -14,-31.05 -30.13,-35.48l0 -228.62c0,-3.66 -2.97,-6.63 -6.63,-6.63 -3.66,0 -6.63,2.97 -6.63,6.63l0 227.21c-0.02,0 -0.05,0 -0.07,0.01 -0.28,0.02 -0.55,0.05 -0.83,0.07 -0.52,0.04 -1.03,0.08 -1.55,0.14 -0.32,0.04 -0.63,0.09 -0.95,0.13 -0.47,0.06 -0.94,0.13 -1.4,0.21 -0.33,0.06 -0.65,0.13 -0.98,0.19 -0.45,0.09 -0.89,0.18 -1.33,0.28 -0.33,0.08 -0.66,0.17 -0.99,0.25 -0.43,0.11 -0.86,0.22 -1.28,0.35 -0.33,0.1 -0.65,0.2 -0.98,0.31 -0.42,0.13 -0.83,0.27 -1.24,0.42 -0.33,0.12 -0.65,0.24 -0.97,0.36 -0.4,0.16 -0.81,0.31 -1.2,0.48 -0.32,0.13 -0.64,0.28 -0.95,0.42 -0.33,0.15 -0.66,0.3 -0.98,0.45l0 -43.99c0,-4.39 -3.57,-7.96 -7.96,-7.96l-32.03 0c-4.39,0 -7.96,3.57 -7.96,7.96l0 44.46c0,4.39 3.57,7.96 7.96,7.96l28.39 -0c-0.2,0.21 -0.4,0.41 -0.6,0.62 -0.36,0.39 -0.7,0.79 -1.05,1.2 -0.17,0.2 -0.34,0.39 -0.51,0.59 -0.5,0.61 -0.99,1.24 -1.47,1.88 -0.75,0.15 -1.48,0.33 -2.21,0.53 -0.24,0.06 -0.46,0.14 -0.7,0.21 -0.49,0.15 -0.98,0.3 -1.46,0.47 -0.27,0.09 -0.53,0.2 -0.79,0.3 -0.44,0.17 -0.87,0.34 -1.31,0.53 -0.27,0.11 -0.53,0.23 -0.8,0.36 -0.42,0.2 -0.84,0.4 -1.26,0.61 -0.25,0.13 -0.5,0.26 -0.74,0.39 -0.44,0.24 -0.86,0.49 -1.29,0.75 -0.21,0.13 -0.42,0.25 -0.62,0.38 -0.56,0.36 -1.1,0.73 -1.64,1.11 -0.06,0.04 -0.13,0.08 -0.19,0.13 -0.6,0.44 -1.18,0.9 -1.74,1.38 -0.16,0.13 -0.31,0.28 -0.47,0.41 -0.4,0.35 -0.79,0.7 -1.17,1.07 -0.19,0.18 -0.37,0.38 -0.56,0.56 -0.33,0.34 -0.66,0.68 -0.98,1.03 -0.19,0.21 -0.37,0.42 -0.56,0.63 -0.31,0.36 -0.6,0.72 -0.89,1.08 -0.17,0.22 -0.34,0.44 -0.51,0.66 -0.29,0.39 -0.58,0.8 -0.85,1.2 -0.14,0.21 -0.29,0.41 -0.42,0.62 -0.33,0.51 -0.64,1.02 -0.94,1.55 -0.07,0.12 -0.15,0.24 -0.21,0.36 -0.36,0.65 -0.71,1.32 -1.03,2 -0.08,0.18 -0.15,0.36 -0.23,0.53 -0.19,0.42 -0.38,0.83 -0.55,1.26l-85.52 -0 0 -97.43 2.51 1.67c0.49,0.33 1,0.63 1.52,0.9 0.11,0.06 0.22,0.1 0.32,0.15 2.77,1.37 5.87,1.95 8.95,1.68 0.89,-0.08 1.77,-0.2 2.64,-0.42 1.15,-0.29 2.25,-0.7 3.3,-1.21 0.07,-0.04 0.14,-0.08 0.21,-0.12 0.45,-0.23 0.89,-0.47 1.31,-0.73 0,-0 0.01,-0.01 0.01,-0.01 0.49,-0.31 0.96,-0.64 1.42,-0.99 0.07,-0.05 0.13,-0.12 0.2,-0.17 1.74,-1.4 3.21,-3.15 4.29,-5.15 2.5,-4.68 2.6,-10 0.66,-14.54l27.13 -0c4.39,0 7.96,-3.57 7.96,-7.96l0 -44.46c0,-4.39 -3.57,-7.96 -7.96,-7.96l-32.03 0c-4.39,0 -7.96,3.57 -7.96,7.96l0 40.53 -14.49 -9.64 0 -30.9c0,-4.39 -3.57,-7.96 -7.96,-7.96l-32.03 0c-4.07,0 -7.42,3.07 -7.9,7l-15.77 -10.49 -0 -206.47 204.22 0 0 81.45c0,3.66 2.97,6.63 6.63,6.63 3.66,0 6.63,-2.97 6.63,-6.63l0 -83.56c0,-6.14 -5,-11.14 -11.14,-11.14l-10.16 0 0 -18.41c-0,-5.26 -4.28,-9.54 -9.54,-9.54l-169.05 0c-5.26,0 -9.54,4.28 -9.54,9.54l0 18.41 -10.16 0c-6.14,0 -11.14,5 -11.14,11.14l0 199.77 -8.13 -5.41c-3.15,-2.09 -7.21,-2.09 -10.35,-0l-27.08 18.02 0 -8.94c0,-5.87 -4.77,-10.64 -10.64,-10.64l-31.63 0c-5.87,0 -10.64,4.77 -10.64,10.64l0 10.55c0,4.06 2.28,7.59 5.63,9.38l0 20.45 -31.84 21.18c-7.27,4.83 -9.64,14.28 -5.52,21.98 2.23,4.18 6.15,7.23 10.75,8.39 1.35,0.34 2.72,0.51 4.09,0.51 3.29,0 6.55,-0.96 9.34,-2.82l0 0 2.51 -1.67 0 32.7c0,3.66 2.97,6.63 6.63,6.63 3.66,0 6.63,-2.97 6.63,-6.63l0 -41.51 76.96 -51.19 76.96 51.19 0 106.25 -84.95 0 0 -71.19c0,-5.23 -4.25,-9.48 -9.48,-9.48l-43.28 0c-5.23,0 -9.48,4.25 -9.48,9.48l0 71.19 -6.72 0 0 -23.57c0,-3.66 -2.97,-6.63 -6.63,-6.63 -3.66,0 -6.63,2.97 -6.63,6.63l0 23.57 -34.32 0c-10.27,0 -18.63,8.36 -18.63,18.63 0,10.27 8.35,18.62 18.62,18.62l402.73 0c10.27,0 18.63,-8.36 18.63,-18.63 0,-10.27 -8.36,-18.63 -18.63,-18.63zm-76.37 -37.66l-21.44 0 0 -33.87 21.44 0 0 33.87zm-83.88 -125.85l21.44 0 0 33.87 -21.44 0 0 -33.87zm-70.09 -251.15l161.62 0 0 14.69 -161.62 0 0 -14.69zm143.18 414.47c0.06,-0.08 0.13,-0.16 0.2,-0.24 0.27,-0.32 0.55,-0.64 0.84,-0.95 0.03,-0.03 0.05,-0.06 0.08,-0.08 0.31,-0.32 0.64,-0.63 0.97,-0.93 0.08,-0.07 0.16,-0.14 0.24,-0.21 0.34,-0.3 0.68,-0.58 1.04,-0.86 0.03,-0.02 0.06,-0.04 0.09,-0.07 0.34,-0.26 0.68,-0.5 1.04,-0.73 0.08,-0.06 0.17,-0.11 0.25,-0.17 0.38,-0.24 0.76,-0.47 1.15,-0.68 0.07,-0.04 0.13,-0.07 0.2,-0.11 0.35,-0.19 0.71,-0.37 1.08,-0.54 0.08,-0.04 0.16,-0.08 0.24,-0.11 0.41,-0.18 0.83,-0.35 1.25,-0.5 0.09,-0.03 0.18,-0.06 0.27,-0.09 0.39,-0.14 0.79,-0.26 1.19,-0.37 0.06,-0.02 0.11,-0.03 0.17,-0.05 0.44,-0.12 0.89,-0.22 1.35,-0.31 0.1,-0.02 0.21,-0.04 0.31,-0.06 0.47,-0.08 0.93,-0.16 1.41,-0.2 2.03,-0.21 3.84,-1.35 4.92,-3.07 5.17,-8.26 14.06,-13.19 23.78,-13.19 0.55,0 1.09,0.02 1.65,0.05 0.04,0 0.08,0.01 0.12,0.01 0.56,0.04 1.12,0.09 1.71,0.16 0.02,0 0.05,0 0.07,0.01 12.36,1.57 22.23,11.22 24.14,23.48l-69.9 0c0.05,-0.06 0.09,-0.12 0.14,-0.18zm-135.53 -163.32l21.44 0 0 16.79 -21.44 -14.27 0 -2.53zm-127.43 -19.27l26.41 0 0 5.33 -26.41 0 0 -5.33zm20.77 18.59l0 0 0 0.31 -15.14 10.07 0 -10.37 15.14 0zm56.32 -5.72c-1.09,-0.72 -2.29,-1.18 -3.52,-1.4 -0.1,-0.02 -0.2,-0.05 -0.31,-0.07 -0.03,-0 -0.05,-0 -0.08,-0.01 -1.82,-0.25 -3.7,0.05 -5.39,0.88 -0.36,0.18 -0.71,0.37 -1.05,0.59l-94.88 63.11c-1.15,0.77 -2.29,0.64 -2.87,0.49 -0.58,-0.14 -1.64,-0.57 -2.29,-1.79 -0.88,-1.64 -0.37,-3.66 1.18,-4.69l104.03 -69.21 104.03 69.21c1.55,1.03 2.06,3.05 1.18,4.69 -0.65,1.22 -1.72,1.64 -2.29,1.79 -0.58,0.14 -1.71,0.27 -2.87,-0.49l-12.8 -8.52 -82.08 -54.6zm-62.16 102.49l35.74 0 0 67.43 -35.74 0 0 -67.43zm335.18 91.42l-402.73 0c-2.96,0 -5.37,-2.41 -5.37,-5.37 0,-2.96 2.41,-5.37 5.37,-5.37l402.73 0c2.96,0 5.37,2.41 5.37,5.37 0,2.96 -2.41,5.37 -5.37,5.37z"/>
   <path class="fil0" d="M202.78 356.75l-51.93 0c-4.71,0 -8.54,3.83 -8.54,8.54l0 31.59c0,3.66 2.97,6.63 6.63,6.63l55.75 0c3.66,0 6.63,-2.97 6.63,-6.63l0 -31.59c0,-4.71 -3.83,-8.54 -8.54,-8.54zm-4.72 33.5l-42.5 0 0 -20.25 42.5 0 0 20.25z"/>
   <path class="fil0" d="M225.41 67.2l-32.03 0c-4.39,0 -7.96,3.57 -7.96,7.96l0 44.46c0,4.39 3.57,7.96 7.96,7.96l32.03 0c4.39,0 7.96,-3.57 7.96,-7.96l0 -44.46 0 0c-0,-4.39 -3.57,-7.96 -7.96,-7.96zm-5.29 47.12l-21.44 0 0 -33.87 21.44 0 0 33.87z"/>
   <path class="fil0" d="M287.84 67.2l-32.03 0c-4.39,0 -7.96,3.57 -7.96,7.96l0 44.46c0,4.39 3.57,7.96 7.96,7.96l32.03 0c4.39,0 7.96,-3.57 7.96,-7.96l0 -44.46 0 0c0,-4.39 -3.57,-7.96 -7.96,-7.96zm-5.29 47.12l-21.44 0 0 -33.87 21.44 0 0 33.87z"/>
   <path class="fil0" d="M350.27 67.2l-32.03 0c-4.39,0 -7.96,3.57 -7.96,7.96l0 44.46c0,4.39 3.57,7.96 7.96,7.96l32.03 0c4.39,0 7.96,-3.57 7.96,-7.96l0 -44.46c0,-4.39 -3.57,-7.96 -7.96,-7.96zm-5.29 47.12l-21.44 0 0 -33.87 21.44 0 0 33.87z"/>
   <path class="fil0" d="M225.41 159.18l-32.03 0c-4.39,0 -7.96,3.57 -7.96,7.96l0 44.46c0,4.39 3.57,7.96 7.96,7.96l32.03 0c4.39,0 7.96,-3.57 7.96,-7.96l0 -44.46c0,-4.39 -3.57,-7.96 -7.96,-7.96zm-5.29 47.12l-21.44 0 0 -33.87 21.44 0 0 33.87z"/>
   <path class="fil0" d="M287.84 159.18l-32.03 0c-4.39,0 -7.96,3.57 -7.96,7.96l0 44.46c0,4.39 3.57,7.96 7.96,7.96l32.03 0c4.39,0 7.96,-3.57 7.96,-7.96l0 -44.46c0,-4.39 -3.57,-7.96 -7.96,-7.96zm-5.29 47.12l-21.44 0 0 -33.87 21.44 0 0 33.87z"/>
   <path class="fil0" d="M350.27 159.18l-32.03 0c-4.39,0 -7.96,3.57 -7.96,7.96l-0 44.46c0,4.39 3.57,7.96 7.96,7.96l32.03 0c4.39,0 7.96,-3.57 7.96,-7.96l0 -44.46c0,-4.39 -3.57,-7.96 -7.96,-7.96zm-5.29 47.12l-21.44 0 0 -33.87 21.44 0 0 33.87z"/>
   <path class="fil0" d="M350.27 251.15l-32.03 0c-4.39,0 -7.96,3.57 -7.96,7.96l0 44.46c0,4.39 3.57,7.96 7.96,7.96l32.03 -0c4.39,0 7.96,-3.57 7.96,-7.96l0 -44.46c0,-4.39 -3.57,-7.96 -7.96,-7.96zm-5.29 47.12l-21.44 0 0 -33.87 21.44 0 0 33.87z"/>
   <path class="fil0" d="M289.17 343.12l-34.7 0c-3.66,0 -6.63,2.97 -6.63,6.63l0 47.12c0,3.66 2.97,6.63 6.63,6.63l34.7 0c3.66,0 6.63,-2.97 6.63,-6.63l0 -47.12c-0,-3.66 -2.97,-6.63 -6.63,-6.63zm-6.63 47.12l-21.44 0 0 -33.87 21.44 0 0 33.87z"/>
  </g>
 </g>
</svg>
