<?xml version="1.0" encoding="UTF-8"?>
<!DOCTYPE svg PUBLIC "-//W3C//DTD SVG 1.1//EN" "http://www.w3.org/Graphics/SVG/1.1/DTD/svg11.dtd">
<!-- Creator: CorelDRAW 2017 -->
<svg xmlns="http://www.w3.org/2000/svg" xml:space="preserve" width="76.2mm" height="71.6051mm" version="1.1" style="shape-rendering:geometricPrecision; text-rendering:geometricPrecision; image-rendering:optimizeQuality; fill-rule:evenodd; clip-rule:evenodd"
viewBox="0 0 338.77 318.35"
 xmlns:xlink="http://www.w3.org/1999/xlink">
 <defs>
  <style type="text/css">
   <![CDATA[
    .fil0 {fill:#15949D}
   ]]>
  </style>
 </defs>
 <g id="Capa_x0020_1">
  <metadata id="CorelCorpID_0Corel-Layer"/>
  <g id="_1814548189392">
   <path class="fil0" d="M291.79 77.89c-21.97,-4.16 -42.38,-14.59 -59.02,-30.17 -17.24,-16.14 -39.75,-25.03 -63.38,-25.03 -23.63,0 -46.14,8.89 -63.38,25.03 -16.64,15.58 -37.05,26.02 -59.02,30.17 -2.68,0.51 -4.62,2.85 -4.62,5.57l0 27.31c0,3.13 2.54,5.67 5.67,5.67 3.13,0 5.67,-2.54 5.67,-5.67l0 -22.7c22.33,-5.09 43,-16.11 60.05,-32.08 15.13,-14.17 34.89,-21.97 55.63,-21.97 20.74,0 40.5,7.8 55.63,21.97 17.05,15.96 37.72,26.99 60.05,32.08l0 22.7c0,3.13 2.54,5.67 5.67,5.67 3.13,0 5.67,-2.54 5.67,-5.67l0 -27.31c-0,-2.73 -1.94,-5.07 -4.62,-5.57z"/>
   <path class="fil0" d="M319.09 165.48l0 -102.58c0,-3.13 -2.54,-5.67 -5.67,-5.67 -24.06,0 -47.19,-9.26 -65.15,-26.07 -3.77,-3.53 -7.8,-6.83 -12,-9.82 -2.55,-1.82 -6.09,-1.22 -7.91,1.33 -1.82,2.55 -1.22,6.09 1.33,7.91 3.79,2.7 7.43,5.68 10.83,8.86 18.65,17.47 42.34,27.64 67.23,28.98l0 96.72 -28.58 0c8.17,-5.78 14.97,-13.56 19.69,-22.93 0.81,-1.6 0.81,-3.49 0,-5.1 -10.63,-21.14 -31.92,-34.27 -55.55,-34.27 -23.64,0 -44.93,13.13 -55.55,34.27 -0.81,1.6 -0.81,3.49 0,5.1 0.08,0.17 0.17,0.33 0.26,0.5 -6.13,-0.88 -12.35,-1.32 -18.63,-1.32 -6.28,0 -12.5,0.45 -18.63,1.32 0.09,-0.17 0.18,-0.33 0.26,-0.5 0.81,-1.6 0.81,-3.49 0,-5.1 -10.63,-21.14 -31.91,-34.27 -55.55,-34.27 -23.63,0 -44.92,13.13 -55.55,34.27 -0.81,1.6 -0.81,3.5 0,5.1 4.71,9.36 11.52,17.15 19.69,22.93l-28.57 -0 0 -43.77c0,-3.13 -2.54,-5.67 -5.67,-5.67 -3.13,0 -5.67,2.54 -5.67,5.67l0 44.11c-11.16,1.9 -19.68,11.63 -19.68,23.31l0 88.97c0,3.13 2.54,5.67 5.67,5.67l7.13 0c1.15,4.1 3.53,7.79 6.92,10.57 2.23,1.82 2.69,5.29 1.05,7.9l-4.86 7.75c-1.1,1.75 -1.16,3.95 -0.16,5.76 1,1.81 2.9,2.93 4.96,2.93l27.62 0c3.13,0 5.67,-2.54 5.67,-5.67l0 -29.24 20.73 0c3.13,0 5.67,-2.54 5.67,-5.67 0,-3.13 -2.54,-5.67 -5.67,-5.67l-63.4 0 0 -54.44c28.37,-1.36 55.41,-12.87 76.66,-32.77 22.14,-20.73 51.04,-32.14 81.38,-32.14 30.34,0 59.24,11.42 81.38,32.14 21.25,19.9 48.29,31.42 76.66,32.77l0 54.44 -234.54 0c-3.13,0 -5.67,2.54 -5.67,5.67 0,3.13 2.54,5.67 5.67,5.67l191.87 0 0 29.24c0,3.13 2.54,5.67 5.67,5.67l27.62 -0c2.06,0 3.96,-1.12 4.96,-2.93 1,-1.81 0.94,-4.01 -0.16,-5.76l-4.87 -7.75c-1.64,-2.61 -1.18,-6.08 1.06,-7.91 3.38,-2.78 5.76,-6.47 6.91,-10.57l7.13 -0c3.13,0 5.67,-2.54 5.67,-5.67l-0 -88.97c0,-11.69 -8.52,-21.42 -19.68,-23.31zm-276.43 117.95l0 23.57 -11.73 0c4.02,-7.34 2.38,-16.53 -4.02,-21.77 -0.65,-0.53 -1.21,-1.14 -1.69,-1.8l17.44 0zm37.58 -106.84c-19.14,17.92 -43.42,28.34 -68.91,29.69l0 -17.49c0,-6.79 5.52,-12.31 12.31,-12.31l56.72 0c-0.04,0.04 -0.08,0.07 -0.12,0.11zm54.99 -30.68c-14.61,3.95 -28.44,10.43 -40.9,19.21 -17.9,-0.39 -34.03,-10 -42.92,-25.46 9.07,-15.79 25.7,-25.48 44.05,-25.48 18.36,0 34.98,9.69 44.05,25.47 -1.27,2.2 -2.7,4.28 -4.27,6.25zm176.62 139.32c-6.41,5.24 -8.05,14.43 -4.03,21.77l-11.73 0 0 -23.57 17.44 0c-0.48,0.66 -1.03,1.27 -1.68,1.79zm-67.44 -120.11c-12.46,-8.78 -26.29,-15.26 -40.9,-19.21 -1.57,-1.97 -3,-4.05 -4.27,-6.25 9.07,-15.78 25.69,-25.47 44.05,-25.47 18.35,0 34.97,9.69 44.05,25.48 -8.89,15.47 -25.02,25.07 -42.92,25.46zm83 41.16c-25.49,-1.35 -49.77,-11.77 -68.91,-29.69 -0.04,-0.04 -0.08,-0.07 -0.12,-0.11l56.72 0c6.79,0 12.31,5.52 12.31,12.31l0 17.49 -0 0z"/>
   <path class="fil0" d="M311.36 227.29c-25.48,-4.32 -49.11,-16.13 -68.35,-34.14 -20.03,-18.75 -46.18,-29.08 -73.63,-29.08 -27.45,0 -53.6,10.33 -73.63,29.08 -19.24,18.01 -42.87,29.82 -68.35,34.14 -2.73,0.46 -4.72,2.83 -4.72,5.59l0 22.19c0,3.13 2.54,5.67 5.67,5.67l282.06 0c3.13,0 5.67,-2.54 5.67,-5.67l0 -22.19c-0,-2.77 -2,-5.13 -4.72,-5.59zm-6.62 22.11l-270.71 0 0 -11.81c25.87,-5.3 49.81,-17.74 69.48,-36.16 17.92,-16.78 41.31,-26.02 65.88,-26.02 24.56,0 47.96,9.24 65.87,26.02 19.68,18.42 43.61,30.86 69.48,36.16l0 11.81z"/>
   <path class="fil0" d="M220.23 11.77c-15.9,-7.81 -33.01,-11.77 -50.84,-11.77 -29.41,0 -57.43,11.07 -78.88,31.16 -17.96,16.81 -41.09,26.07 -65.15,26.07 -3.13,0 -5.67,2.54 -5.67,5.67l0 39.18c0,3.13 2.54,5.67 5.67,5.67 3.13,0 5.67,-2.54 5.67,-5.67l0 -33.66c24.89,-1.34 48.58,-11.52 67.23,-28.98 19.35,-18.12 44.61,-28.1 71.13,-28.1 16.09,0 31.51,3.57 45.84,10.61 2.81,1.38 6.21,0.22 7.59,-2.59 1.38,-2.81 0.22,-6.21 -2.59,-7.59z"/>
  </g>
 </g>
</svg>
