<?xml version="1.0" encoding="UTF-8"?>
<!DOCTYPE svg PUBLIC "-//W3C//DTD SVG 1.1//EN" "http://www.w3.org/Graphics/SVG/1.1/DTD/svg11.dtd">
<!-- Creator: CorelDRAW 2017 -->
<svg xmlns="http://www.w3.org/2000/svg" xml:space="preserve" width="76.2mm" height="76.2mm" version="1.1" style="shape-rendering:geometricPrecision; text-rendering:geometricPrecision; image-rendering:optimizeQuality; fill-rule:evenodd; clip-rule:evenodd"
viewBox="0 0 335.26 335.26"
 xmlns:xlink="http://www.w3.org/1999/xlink">
 <defs>
  <style type="text/css">
   <![CDATA[
    .fil1 {fill:#C4C156}
    .fil0 {fill:#C4C156;fill-rule:nonzero}
   ]]>
  </style>
 </defs>
 <g id="Capa_x0020_1">
  <metadata id="CorelCorpID_0Corel-Layer"/>
  <g id="_1814548234992">
   <path class="fil0" d="M167.63 0c46.29,0 88.2,18.77 118.53,49.1 30.33,30.33 49.1,72.26 49.1,118.53 0,46.29 -18.77,88.2 -49.1,118.53 -30.33,30.33 -72.24,49.1 -118.53,49.1 -46.27,0 -88.2,-18.77 -118.53,-49.1 -30.33,-30.33 -49.1,-72.24 -49.1,-118.53 0,-46.27 18.77,-88.2 49.1,-118.53 30.33,-30.33 72.26,-49.1 118.53,-49.1zm106.91 60.72c-27.35,-27.35 -65.16,-44.29 -106.91,-44.29 -41.75,0 -79.56,16.93 -106.91,44.29 -27.35,27.35 -44.29,65.16 -44.29,106.91 0,41.75 16.93,79.56 44.29,106.91 27.35,27.35 65.16,44.29 106.91,44.29 41.75,0 79.56,-16.93 106.91,-44.29 27.35,-27.35 44.29,-65.16 44.29,-106.91 0,-41.75 -16.93,-79.56 -44.29,-106.91z"/>
   <circle class="fil1" cx="167.63" cy="167.63" r="115.94"/>
  </g>
 </g>
</svg>
