<?xml version="1.0" encoding="UTF-8"?>
<!DOCTYPE svg PUBLIC "-//W3C//DTD SVG 1.1//EN" "http://www.w3.org/Graphics/SVG/1.1/DTD/svg11.dtd">
<!-- Creator: CorelDRAW 2017 -->
<svg xmlns="http://www.w3.org/2000/svg" xml:space="preserve" width="76.2mm" height="108.376mm" version="1.1" style="shape-rendering:geometricPrecision; text-rendering:geometricPrecision; image-rendering:optimizeQuality; fill-rule:evenodd; clip-rule:evenodd"
viewBox="0 0 965.05 1372.54"
 xmlns:xlink="http://www.w3.org/1999/xlink">
 <defs>
  <style type="text/css">
   <![CDATA[
    .fil0 {fill:white}
   ]]>
  </style>
 </defs>
 <g id="Capa_x0020_1">
  <metadata id="CorelCorpID_0Corel-Layer"/>
  <g id="_1814240673088">
   <path class="fil0" d="M778.35 960.37c-11.11,0 -20.12,8.99 -20.12,20.11l0 351.85 -228.8 0c-11.11,0 -20.12,8.99 -20.12,20.11 0,11.11 9,20.11 20.12,20.11l370.89 0c35.69,0 64.72,-29.03 64.72,-64.72l0 -172.45c0,-11.11 -9.01,-20.11 -20.11,-20.11 -11.11,0 -20.11,8.99 -20.11,20.11l0 172.45c0,13.51 -11,24.5 -24.5,24.5l-101.87 0 0 -351.85c0,-11.11 -9.01,-20.11 -20.11,-20.11zm0 0z"/>
   <path class="fil0" d="M965.04 942.12c0,-123.63 -105.84,-168.56 -110.35,-170.41 -0.13,-0.06 -0.25,-0.1 -0.38,-0.16l-215.05 -83.28c-0.02,-0.01 -0.04,-0.02 -0.06,-0.02l-34.3 -13.29c-1.42,-0.55 -2.38,-1.95 -2.38,-3.48l0 -57.43c40.1,-31.03 67.85,-77.22 74.61,-129.92 48.56,-3.05 84.31,-42.24 84.31,-88.53 0,-21.49 -7.79,-42 -21.68,-57.94l0 -78.17c0,-143.09 -116.41,-259.51 -259.51,-259.51 -143.09,0 -259.5,116.41 -259.5,259.51l0 80.21c-14.03,15.79 -21.67,35.26 -21.67,55.9 0,46.22 35.67,85.47 84.29,88.53 6.77,53.33 35.07,101.36 78.86,133.01l0 53.49c0,2.04 -1.28,3.91 -3.18,4.64l-36.6 14.19c-0.02,0.01 -0.03,0.02 -0.05,0.02l-211.69 82.07c-0.13,0.05 -0.25,0.09 -0.38,0.16 -4.5,1.84 -110.34,46.78 -110.34,170.4l0 365.7c0,35.69 29.04,64.72 64.72,64.72l370.89 -0c11.11,0 20.11,-9 20.11,-20.11 0,-11.11 -8.99,-20.11 -20.11,-20.11l-228.8 -0 0 -351.85c0,-11.11 -9.01,-20.11 -20.11,-20.11 -11.11,0 -20.12,8.99 -20.12,20.11l0 351.85 -101.87 0c-13.51,0 -24.5,-11 -24.5,-24.5l0 -365.7c0,-95.24 80.37,-131.06 85.29,-133.17l198.58 -76.98 17.26 18.34c76.38,81.14 201.5,81.12 277.85,-0.01l18.41 -19.55 201.94 78.2c3.7,1.59 85.29,37.91 85.29,133.17l0 99.42c0,11.11 9,20.11 20.11,20.11 11.11,0 20.11,-9 20.11,-20.11l0 -99.42 0.01 0zm-286.24 -498.54l0 -95.9c24.81,3.49 42.43,23.93 42.43,47.94 0,23.57 -17.06,44.34 -42.43,47.96zm-417.83 -184.07c0,-120.93 98.37,-219.3 219.29,-219.3 120.93,0 219.3,98.37 219.3,219.3l0 51.77c-6.67,-2.13 -13.61,-3.48 -20.76,-4.05l0 -2.88c0,-17.59 -2.41,-16.73 -65.91,-85.01 -12.14,-13.04 -31.73,-15.38 -46.58,-5.68 -73.09,47.75 -162.21,71.82 -244.57,66.13 -0.29,-0.02 -0.6,-0.03 -0.89,-0.05 -18.3,-1.38 -34.19,11.09 -38.16,28.06 -7.01,0.76 -15.38,2.73 -21.73,4.97l0 -53.27zm-21.67 136.11c0,-23.43 19.74,-42.19 42.44,-46.95l0 94.91c-25.39,-3.61 -42.44,-24.39 -42.44,-47.96zm82.65 63.45c0,-30.02 0,-111.63 0,-138.96 91.11,5.56 186.61,-21.5 263.67,-71.04 31.14,33.45 47.8,50.76 52.96,57.16l0 152.83c0,85.78 -69.93,155.76 -155.77,155.76 -96.34,0 -160.86,-74.76 -160.86,-155.76zm267.95 263.69c-60.46,64.24 -158.8,64.24 -219.28,0l-6.08 -6.46 9.06 -3.51c17.26,-6.69 28.85,-23.62 28.85,-42.14l0 -31.1c24.77,10.17 51.95,15.5 80.36,15.5 27.8,0 55.66,-6.23 79.5,-16.87l0 33.33c0,18 11.28,34.46 28.06,40.97l6.74 2.62 -7.21 7.66zm0 0z"/>
  </g>
 </g>
</svg>
