<?xml version="1.0" encoding="UTF-8"?>
<!DOCTYPE svg PUBLIC "-//W3C//DTD SVG 1.1//EN" "http://www.w3.org/Graphics/SVG/1.1/DTD/svg11.dtd">
<!-- Creator: CorelDRAW 2017 -->
<svg xmlns="http://www.w3.org/2000/svg" xml:space="preserve" width="76.2mm" height="108.376mm" version="1.1" style="shape-rendering:geometricPrecision; text-rendering:geometricPrecision; image-rendering:optimizeQuality; fill-rule:evenodd; clip-rule:evenodd"
viewBox="0 0 1434.31 2039.95"
 xmlns:xlink="http://www.w3.org/1999/xlink">
 <defs>
  <style type="text/css">
   <![CDATA[
    .fil0 {fill:#5D6A6B}
   ]]>
  </style>
 </defs>
 <g id="Capa_x0020_1">
  <metadata id="CorelCorpID_0Corel-Layer"/>
  <g id="_1814548214160">
   <path class="fil0" d="M1156.84 1427.36c-16.51,0 -29.9,13.37 -29.9,29.88l0 522.94 -340.05 0c-16.51,0 -29.9,13.37 -29.9,29.88 0,16.51 13.38,29.88 29.9,29.88l551.24 0c53.04,0 96.19,-43.14 96.19,-96.18l0 -256.3c0,-16.51 -13.38,-29.88 -29.88,-29.88 -16.51,0 -29.88,13.37 -29.88,29.88l0 256.3c0,20.08 -16.34,36.42 -36.42,36.42l-151.41 0 0 -522.94c0,-16.51 -13.38,-29.88 -29.88,-29.88zm0 0z"/>
   <path class="fil0" d="M1434.31 1400.24c0,-183.74 -157.3,-250.53 -164.01,-253.27 -0.19,-0.09 -0.37,-0.15 -0.56,-0.23l-319.62 -123.78c-0.03,-0.02 -0.06,-0.03 -0.09,-0.03l-50.99 -19.75c-2.12,-0.82 -3.53,-2.89 -3.53,-5.17l0 -85.35c59.59,-46.11 100.84,-114.77 110.89,-193.1 72.17,-4.53 125.3,-62.78 125.3,-131.57 0,-31.94 -11.58,-62.43 -32.22,-86.11l0 -116.18c0,-212.67 -173.02,-385.7 -385.7,-385.7 -212.66,0 -385.69,173.02 -385.69,385.7l0 119.22c-20.86,23.47 -32.2,52.4 -32.2,83.08 0,68.7 53.01,127.03 125.27,131.57 10.07,79.27 52.12,150.64 117.21,197.69l0 79.5c0,3.04 -1.9,5.81 -4.73,6.9l-54.39 21.09c-0.03,0.02 -0.05,0.03 -0.08,0.03l-314.62 121.97c-0.19,0.08 -0.37,0.14 -0.56,0.24 -6.69,2.74 -163.99,69.52 -163.99,253.26l0 543.53c0,53.04 43.16,96.18 96.18,96.18l551.24 -0c16.51,0 29.88,-13.37 29.88,-29.88 0,-16.51 -13.37,-29.88 -29.88,-29.88l-340.05 -0 0 -522.94c0,-16.51 -13.38,-29.88 -29.88,-29.88 -16.51,0 -29.9,13.37 -29.9,29.88l0 522.94 -151.4 0c-20.08,0 -36.42,-16.34 -36.42,-36.42l0 -543.53c0,-141.55 119.45,-194.79 126.77,-197.92l295.14 -114.41 25.65 27.25c113.52,120.6 299.48,120.57 412.95,-0.02l27.36 -29.06 300.13 116.23c5.49,2.37 126.77,56.34 126.77,197.92l0 147.76c0,16.51 13.37,29.88 29.88,29.88 16.51,0 29.88,-13.37 29.88,-29.88l0 -147.76 0.02 0zm-425.43 -740.96l0 -142.53c36.87,5.18 63.06,35.56 63.06,71.25 0,35.03 -25.35,65.9 -63.06,71.28zm-621.01 -273.58c0,-179.73 146.21,-325.93 325.92,-325.93 179.73,0 325.94,146.2 325.94,325.93l0 76.95c-9.91,-3.16 -20.23,-5.17 -30.85,-6.02l0 -4.28c0,-26.15 -3.58,-24.87 -97.96,-126.34 -18.04,-19.38 -47.16,-22.86 -69.23,-8.44 -108.64,70.97 -241.08,106.75 -363.49,98.28 -0.44,-0.03 -0.89,-0.05 -1.32,-0.08 -27.2,-2.06 -50.81,16.48 -56.71,41.71 -10.41,1.14 -22.86,4.06 -32.29,7.39l0 -79.17zm-32.2 202.3c0,-34.82 29.34,-62.7 63.08,-69.79l0 141.07c-37.74,-5.37 -63.08,-36.25 -63.08,-71.28zm122.84 94.3c0,-44.62 0,-165.91 0,-206.53 135.42,8.26 277.35,-31.95 391.88,-105.58 46.29,49.71 71.05,75.44 78.71,84.96l0 227.15c0,127.5 -103.93,231.51 -231.51,231.51 -143.19,0 -239.08,-111.11 -239.08,-231.51zm398.25 391.9c-89.87,95.48 -236.02,95.48 -325.91,0l-9.04 -9.6 13.46 -5.21c25.65,-9.94 42.88,-35.11 42.88,-62.63l0 -46.22c36.81,15.11 77.21,23.03 119.44,23.03 41.32,0 82.72,-9.26 118.16,-25.07l0 49.54c0,26.75 16.76,51.22 41.71,60.89l10.02 3.89 -10.72 11.39zm0 0z"/>
  </g>
 </g>
</svg>
