<?xml version="1.0" encoding="UTF-8"?>
<!DOCTYPE svg PUBLIC "-//W3C//DTD SVG 1.1//EN" "http://www.w3.org/Graphics/SVG/1.1/DTD/svg11.dtd">
<!-- Creator: CorelDRAW 2017 -->
<svg xmlns="http://www.w3.org/2000/svg" xml:space="preserve" width="76.2mm" height="108.376mm" version="1.1" style="shape-rendering:geometricPrecision; text-rendering:geometricPrecision; image-rendering:optimizeQuality; fill-rule:evenodd; clip-rule:evenodd"
viewBox="0 0 706.24 1004.45"
 xmlns:xlink="http://www.w3.org/1999/xlink">
 <defs>
  <style type="text/css">
   <![CDATA[
    .fil0 {fill:black}
   ]]>
  </style>
 </defs>
 <g id="Capa_x0020_1">
  <metadata id="CorelCorpID_0Corel-Layer"/>
  <g id="_1814548225712">
   <path class="fil0" d="M569.61 702.82c-8.13,0 -14.72,6.58 -14.72,14.71l0 257.49 -167.44 0c-8.13,0 -14.72,6.58 -14.72,14.71 0,8.13 6.59,14.71 14.72,14.71l271.42 0c26.12,0 47.36,-21.24 47.36,-47.36l0 -126.2c0,-8.13 -6.59,-14.71 -14.71,-14.71 -8.13,0 -14.71,6.58 -14.71,14.71l0 126.2c0,9.89 -8.05,17.93 -17.93,17.93l-74.55 0 0 -257.49c0,-8.13 -6.59,-14.71 -14.71,-14.71zm0 0z"/>
   <path class="fil0" d="M706.24 689.46c0,-90.47 -77.45,-123.36 -80.76,-124.71 -0.09,-0.05 -0.18,-0.08 -0.28,-0.11l-157.38 -60.95c-0.02,-0.01 -0.03,-0.02 -0.05,-0.02l-25.1 -9.72c-1.04,-0.41 -1.74,-1.43 -1.74,-2.55l0 -42.02c29.34,-22.71 49.65,-56.51 54.6,-95.08 35.54,-2.23 61.7,-30.91 61.7,-64.79 0,-15.73 -5.7,-30.74 -15.86,-42.4l0 -57.21c0,-104.72 -85.19,-189.91 -189.91,-189.91 -104.71,0 -189.91,85.19 -189.91,189.91l0 58.7c-10.27,11.56 -15.86,25.8 -15.86,40.91 0,33.83 26.1,62.55 61.68,64.78 4.96,39.03 25.66,74.17 57.71,97.34l0 39.14c0,1.49 -0.94,2.86 -2.33,3.4l-26.78 10.38c-0.02,0.01 -0.02,0.02 -0.04,0.02l-154.92 60.06c-0.09,0.04 -0.18,0.07 -0.28,0.12 -3.3,1.35 -80.75,34.23 -80.75,124.7l0 267.63c0,26.12 21.25,47.36 47.36,47.36l271.42 -0c8.13,0 14.71,-6.58 14.71,-14.71 0,-8.13 -6.58,-14.71 -14.71,-14.71l-167.44 -0 0 -257.49c0,-8.13 -6.59,-14.71 -14.71,-14.71 -8.13,0 -14.72,6.58 -14.72,14.71l0 257.49 -74.55 0c-9.89,0 -17.93,-8.05 -17.93,-17.93l0 -267.63c0,-69.7 58.82,-95.91 62.42,-97.45l145.32 -56.33 12.63 13.42c55.9,59.38 147.46,59.37 203.33,-0.01l13.47 -14.31 147.78 57.23c2.71,1.17 62.42,27.74 62.42,97.45l0 72.76c0,8.13 6.58,14.71 14.71,14.71 8.13,0 14.71,-6.58 14.71,-14.71l0 -72.76 0.01 0zm-209.48 -364.84l0 -70.18c18.15,2.55 31.05,17.51 31.05,35.08 0,17.25 -12.48,32.45 -31.05,35.1zm-305.78 -134.71c0,-88.5 71.99,-160.48 160.48,-160.48 88.5,0 160.49,71.99 160.49,160.48l0 37.89c-4.88,-1.56 -9.96,-2.54 -15.19,-2.97l0 -2.11c0,-12.87 -1.76,-12.25 -48.23,-62.21 -8.88,-9.54 -23.22,-11.26 -34.09,-4.15 -53.49,34.94 -118.71,52.56 -178.98,48.39 -0.22,-0.02 -0.44,-0.02 -0.65,-0.04 -13.4,-1.01 -25.02,8.12 -27.93,20.54 -5.13,0.56 -11.26,2 -15.9,3.64l0 -38.98zm-15.86 99.61c0,-17.14 14.45,-30.88 31.06,-34.36l0 69.46c-18.58,-2.64 -31.06,-17.85 -31.06,-35.1zm60.49 46.43c0,-21.97 0,-81.69 0,-101.69 66.68,4.07 136.56,-15.73 192.96,-51.99 22.79,24.48 34.98,37.14 38.75,41.83l0 111.85c0,62.78 -51.18,113.99 -113.99,113.99 -70.5,0 -117.72,-54.71 -117.72,-113.99zm196.09 192.97c-44.25,47.01 -116.22,47.01 -160.47,0l-4.45 -4.73 6.63 -2.57c12.63,-4.9 21.11,-17.29 21.11,-30.84l0 -22.76c18.12,7.44 38.02,11.34 58.81,11.34 20.35,0 40.73,-4.56 58.18,-12.35l0 24.39c0,13.17 8.25,25.22 20.54,29.98l4.94 1.92 -5.28 5.61zm0 0z"/>
  </g>
 </g>
</svg>
